<svg width="30" height="30" viewBox="0 0 30 30" fill="none" xmlns="http://www.w3.org/2000/svg">
<path d="M25.3125 14C25.5611 14 25.7998 14.0986 25.9756 14.2744C26.1514 14.4502 26.25 14.6889 26.25 14.9375C26.25 15.1861 26.1514 15.4248 25.9756 15.6006C25.7998 15.7764 25.5611 15.875 25.3125 15.875H6.5625C6.31386 15.875 6.07523 15.7764 5.89941 15.6006C5.7236 15.4248 5.625 15.1861 5.625 14.9375C5.625 14.6889 5.7236 14.4502 5.89941 14.2744C6.07523 14.0986 6.31386 14 6.5625 14H25.3125Z" fill="#0F0F0F"/>
<path d="M25.3125 14C25.5611 14 25.7998 14.0986 25.9756 14.2744C26.1514 14.4502 26.25 14.6889 26.25 14.9375C26.25 15.1861 26.1514 15.4248 25.9756 15.6006C25.7998 15.7764 25.5611 15.875 25.3125 15.875H6.5625C6.31386 15.875 6.07523 15.7764 5.89941 15.6006C5.7236 15.4248 5.625 15.1861 5.625 14.9375C5.625 14.6889 5.7236 14.4502 5.89941 14.2744C6.07523 14.0986 6.31386 14 6.5625 14H25.3125Z" stroke="#0F0F0F"/>
<path d="M14.063 5.62378C14.3118 5.62385 14.5501 5.7232 14.7261 5.89917C14.902 6.07516 15.0014 6.31339 15.0015 6.56226C15.0015 6.81121 14.9021 7.05028 14.7261 7.22632L6.95068 14.9998L14.7261 22.7742C14.902 22.9502 15.0014 23.1884 15.0015 23.4373C15.0015 23.6862 14.9021 23.9253 14.7261 24.1013C14.5501 24.2771 14.3117 24.3757 14.063 24.3757C13.8141 24.3757 13.575 24.2773 13.3989 24.1013L4.96143 15.6638C4.87412 15.5767 4.80459 15.473 4.75732 15.3591C4.71012 15.2453 4.68604 15.123 4.68604 14.9998C4.68606 14.8765 4.71009 14.7542 4.75732 14.6404C4.80454 14.5266 4.87427 14.4237 4.96143 14.3367L13.3989 5.89917C13.575 5.72313 13.814 5.62378 14.063 5.62378Z" fill="#0F0F0F"/>
<path d="M14.063 5.62378C14.3118 5.62385 14.5501 5.7232 14.7261 5.89917C14.902 6.07516 15.0014 6.31339 15.0015 6.56226C15.0015 6.81121 14.9021 7.05028 14.7261 7.22632L6.95068 14.9998L14.7261 22.7742C14.902 22.9502 15.0014 23.1884 15.0015 23.4373C15.0015 23.6862 14.9021 23.9253 14.7261 24.1013C14.5501 24.2771 14.3117 24.3757 14.063 24.3757C13.8141 24.3757 13.575 24.2773 13.3989 24.1013L4.96143 15.6638C4.87412 15.5767 4.80459 15.473 4.75732 15.3591C4.71012 15.2453 4.68604 15.123 4.68604 14.9998C4.68606 14.8765 4.71009 14.7542 4.75732 14.6404C4.80454 14.5266 4.87427 14.4237 4.96143 14.3367L13.3989 5.89917C13.575 5.72313 13.814 5.62378 14.063 5.62378Z" stroke="#0F0F0F"/>
</svg>
