<svg width="152" height="152" viewBox="0 0 152 152" fill="none" xmlns="http://www.w3.org/2000/svg">
<path d="M56.8274 121.674L15.38 79.7906C15.141 79.5491 14.9521 79.2628 14.8241 78.948C14.6961 78.6333 14.6316 78.2963 14.6343 77.9565C14.637 77.6168 14.7068 77.2809 14.8397 76.9682C14.9727 76.6555 15.1661 76.3722 15.409 76.1345L26.039 65.6596C27.0548 64.6598 28.6836 64.6727 29.6834 65.6885L56.9702 93.245C57.97 94.2608 59.6107 94.262 60.6265 93.2622L121.883 32.3854C122.899 31.3739 124.54 31.3869 125.551 32.4027L136.026 43.0445C137.026 44.0603 137.013 45.6891 136.009 46.689L69.2716 112.972L69.2832 112.984L60.4836 121.692C59.4679 122.691 57.8273 122.678 56.8274 121.674Z" fill="#F26725" stroke="#F26725" stroke-width="0.75" stroke-miterlimit="10"/>
</svg>
