<svg width="none" height="none" viewBox="0 0 40 40" fill="none" xmlns="http://www.w3.org/2000/svg">
<path d="M33.0558 35.8722L32.8 35.7198L32.5442 35.8722L26.5022 39.4697L26.5021 39.4698C26.465 39.4918 26.4304 39.5 26.4 39.5C26.3696 39.5 26.335 39.4918 26.2979 39.4698L26.2978 39.4697L20.2558 35.8722L20 35.7198L19.7442 35.8722L13.7022 39.4697L13.7021 39.4698C13.665 39.4918 13.6304 39.5 13.6 39.5C13.5696 39.5 13.535 39.4918 13.4979 39.4698L13.4978 39.4697L7.4558 35.8722L7.2 35.7198L6.9442 35.8722L0.902199 39.4697L0.90211 39.4698C0.861644 39.4939 0.823903 39.5015 0.790797 39.4998C0.757453 39.498 0.717778 39.486 0.675678 39.455C0.632688 39.4233 0.58812 39.3721 0.553973 39.2991C0.519813 39.2261 0.499945 39.1391 0.5 39.0473V39.047V2.85709C0.5 2.2065 0.717856 1.59644 1.08579 1.15842C1.45156 0.722998 1.92702 0.5 2.4 0.5H37.6C38.073 0.5 38.5484 0.722998 38.9142 1.15842C39.2821 1.59644 39.5 2.2065 39.5 2.85709V39.047C39.5 39.1924 39.4507 39.318 39.3828 39.3988C39.3174 39.4767 39.2491 39.4991 39.2005 39.4993C39.1692 39.4992 39.1339 39.4908 39.0963 39.4688C39.0961 39.4687 39.0959 39.4686 39.0958 39.4685L33.0558 35.8722ZM1.1 37.5065V38.3862L1.85581 37.9361L7.09781 34.8147L7.09789 34.8147C7.13495 34.7926 7.16958 34.7844 7.2 34.7844C7.23042 34.7844 7.26505 34.7926 7.30211 34.8147L7.3022 34.8147L13.3442 38.4123L13.6 38.5646L13.8558 38.4123L19.8978 34.8147L19.8979 34.8147C19.935 34.7926 19.9696 34.7844 20 34.7844C20.0304 34.7844 20.065 34.7926 20.1021 34.8147L20.1022 34.8147L26.1442 38.4123L26.4 38.5646L26.6558 38.4123L32.6978 34.8147L32.6979 34.8147C32.735 34.7926 32.7696 34.7844 32.8 34.7844C32.8304 34.7844 32.865 34.7926 32.9021 34.8147L32.9022 34.8147L38.1442 37.9361L38.9 38.3862V37.5065V2.85709C38.9 2.49735 38.7807 2.13847 38.5485 1.86207C38.3142 1.58308 37.9757 1.40473 37.6 1.40473H2.4C2.02429 1.40473 1.68582 1.58308 1.45147 1.86207C1.21929 2.13847 1.1 2.49735 1.1 2.85709V37.5065ZM29.9 14.2855C29.9 14.4309 29.8507 14.5565 29.7828 14.6373C29.7171 14.7155 29.6486 14.7378 29.6 14.7378H10.4C10.3514 14.7378 10.2829 14.7155 10.2172 14.6373C10.1493 14.5565 10.1 14.4309 10.1 14.2855C10.1 14.14 10.1493 14.0145 10.2172 13.9336C10.2829 13.8554 10.3514 13.8331 10.4 13.8331H29.6C29.6486 13.8331 29.7171 13.8554 29.7828 13.9336C29.8507 14.0145 29.9 14.14 29.9 14.2855ZM10.4 21.452H29.6C29.6486 21.452 29.7171 21.4743 29.7828 21.5526C29.8507 21.6334 29.9 21.759 29.9 21.9044C29.9 22.0498 29.8507 22.1754 29.7828 22.2562C29.7171 22.3344 29.6486 22.3568 29.6 22.3568H10.4C10.3514 22.3568 10.2829 22.3344 10.2172 22.2562C10.1493 22.1754 10.1 22.0498 10.1 21.9044C10.1 21.759 10.1493 21.6334 10.2172 21.5526C10.2829 21.4743 10.3514 21.452 10.4 21.452Z" fill="none" stroke="none"/>
</svg>
