<svg width="150" height="150" viewBox="0 0 186 193" fill="none" xmlns="http://www.w3.org/2000/svg">
<rect width="185" height="192" rx="8" fill="white"/>
<path d="M131.711 83.203C131.711 83.203 132.117 82.1951 133.375 81.6795C134.555 81.1951 137.312 81.1326 138.5 82.578C139.75 84.1014 139.711 86.3201 140.117 90.2498C140.437 93.2811 140.719 96.6639 140.227 98.2108C139.859 99.3748 138.781 100.515 136.281 100.586C133.789 100.656 132.609 99.0623 132.609 99.0623L131.711 83.203Z" fill="#31322E"/>
<path d="M45.9297 89.4062C45.9297 89.4062 45.5703 87.3203 47.4688 85.4219C49.3672 83.5234 50.6406 83.3359 53.0781 83.1562C55.5156 82.9766 64.4844 82.7031 64.4844 82.7031C64.4844 82.7031 84.1328 60.9766 84.3125 60.7969C84.4922 60.6172 124.687 60.3438 126.141 60.3438C127.594 60.3438 130.031 61.5234 130.398 63.6016C130.758 65.6875 132.742 86.3203 132.742 86.3203L93.2734 96.1016L45.9297 89.4062Z" fill="#489DF6"/>
<path d="M88.1719 97.7734L61.5781 91.8516L46.1016 104.422C46.1016 104.422 44.0234 104.211 44.0234 106.289C44.0234 108.367 43.8125 112 44.2344 112.312C44.6562 112.625 117.883 112.937 117.883 112.937C117.883 112.937 135.227 112.836 135.75 112.523C136.273 112.211 136.328 111.844 136.477 108.578C136.562 106.711 136.961 104.992 134.883 104.781C134.688 104.766 134.273 104.75 134.102 104.719C132.461 104.406 132.109 103.594 132.109 103.594L125.148 92.4766L100.117 94.5547L88.1719 97.7734Z" fill="#506D71"/>
<path d="M64.4453 100.773C58.1797 100.672 53.5312 105.109 53.5312 111.484C53.5312 116.836 57.1719 121.515 63.7344 121.789C70.9063 122.094 74.8438 116.547 74.9453 111.89C75.0469 107.234 71.7188 100.89 64.4453 100.773Z" fill="#4C443F"/>
<path d="M64.0391 105.516C60.6094 105.68 58.3829 108.141 58.4844 111.172C58.586 114.203 60.9063 117.031 64.3438 116.93C67.7813 116.828 69.8985 114.406 70 111.477C70.0938 108.648 68.2813 105.313 64.0391 105.516Z" fill="#C8C8C8"/>
<path d="M122.281 102.117C116.992 98.7656 110.711 100.125 107.383 105.563C104.586 110.133 105.227 116.07 110.711 119.68C116.063 123.203 122.742 120.859 125.258 116.938C127.773 113.023 128.422 106.008 122.281 102.117Z" fill="#4C443F"/>
<path d="M119.359 105.789C116.344 104.141 113.039 105.453 111.664 107.719C110.094 110.312 110.672 113.984 113.656 115.687C116.641 117.391 119.648 116.391 121.328 113.984C122.633 112.117 123.086 107.828 119.359 105.789Z" fill="#C8C8C8"/>
<path d="M45.6406 104.438C46.2656 104.5 51.4141 104.398 51.4141 104.398C51.4141 104.398 52.8672 100.352 56.961 98.1407C62.0156 95.4141 68.4766 95.7188 72.7188 98.75C77.3281 102.047 77.8672 105.555 77.8672 105.555L102.922 105.414C102.922 105.414 104.336 100.063 109.188 97.0313C113.727 94.1954 120.672 94.5938 124.648 97.5391C129.703 101.273 130.203 104.711 130.203 104.711C130.203 104.711 133.703 104.727 134.125 104.727C134.305 104.727 133.742 95.9219 133.742 95.9219L132.734 86.3204C132.734 86.3204 121.625 86.2188 115.055 88.0391C108.484 89.8594 102.523 90.0625 93.7344 89.961C84.9453 89.8594 78.7813 89.0547 74.4375 88.2422C70.0938 87.4375 64.0313 86.8282 58.6797 88.3438C53.3281 89.8594 51.8125 92.0782 51.8125 92.0782C51.8125 92.0782 45.75 95.211 45.5469 95.8125C45.3438 96.4141 45.6406 104.438 45.6406 104.438Z" fill="#1D86FB"/>
<path d="M128.984 87.6641C128.734 88.1797 128.898 90.5235 128.93 92.8751C128.953 94.8126 128.867 96.4063 129.188 96.6016C129.492 96.7969 133.859 96.5547 133.859 96.5547L133.102 88.1094L132.938 87.5079C132.93 87.5079 129.102 87.4376 128.984 87.6641Z" fill="#FF2A23"/>
<path d="M47.7188 88.375C47.7188 88.375 54.5234 88.1249 54.9375 88.5781C55.3516 89.0312 54.9375 90.1406 54.1094 91.7109C53.2812 93.2812 51.8047 95.5859 51.5156 95.8359C51.2266 96.0859 47.5859 95.9999 47.5859 95.9999L46.1094 90.3906L47.7188 88.375Z" fill="white"/>
<path d="M45.6562 88.4141C45.6562 88.4141 45.2422 90.0156 45.2031 92.125C45.164 94.2266 45.5312 96 45.5312 96H47.5937C47.5937 96 47.3515 94.2266 47.3906 92.2422C47.4297 90.1797 47.8828 88.375 47.8828 88.375L45.6562 88.4141Z" fill="#D7CCC5"/>
<path d="M86.3437 64.9922C85.0156 65.7109 81.2031 70.6797 79.2499 73.0469C77.2968 75.4141 72.1484 81.5078 71.789 82.2187C71.4374 82.9297 71.5546 83.8203 72.6796 83.875C73.8046 83.9375 103.281 84.2266 103.695 84.1719C104.109 84.1094 104.289 83.4609 104.227 82.8672C104.164 82.2734 104.523 66.7109 104.406 66C104.289 65.2891 103.461 64.6406 102.039 64.6406C100.789 64.6484 87.0546 64.6094 86.3437 64.9922Z" fill="#506D73"/>
<path d="M87.4297 66.6955C86.8359 67.0471 75.75 80.4768 75.4687 80.844C75.0547 81.3752 75.0469 81.8127 75.75 81.8127C76.4531 81.8127 100.844 81.8752 101.438 81.8752C102.031 81.8752 102.383 81.4612 102.328 80.8127C102.266 80.1643 102.625 67.5549 102.508 67.2034C102.391 66.8518 102.094 66.4377 101.445 66.4377C100.797 66.4377 87.9375 66.3987 87.4297 66.6955Z" fill="#AFE3FB"/>
<path d="M110.32 64.6485C109.844 64.6485 108.898 65.0626 108.898 65.9532C108.898 66.8438 109.016 83 109.016 83.5313C109.016 84.0625 109.367 84.1251 110.258 84.1251C111.148 84.1251 126.594 83.9454 127.242 83.9454C127.891 83.9454 127.891 83.1172 127.836 82.5235C127.773 81.9297 125.883 67.0157 125.766 66.0704C125.648 65.1251 124.938 64.5313 123.992 64.4688C123.047 64.4063 110.32 64.6485 110.32 64.6485Z" fill="#506D73"/>
<path d="M76.8828 83.7968C76.8828 83.7968 78.0703 85.6327 78.9375 86.4843C79.75 87.2811 80.9141 87.9296 82.0313 87.8358C83.1484 87.7499 83.8516 86.703 84.0391 83.3905C84.25 79.7265 83.4297 78.8749 82.0313 78.8358C80.6016 78.789 80.4609 79.328 79.5703 80.1796C79.0859 80.6405 76.8828 83.7968 76.8828 83.7968Z" fill="#0250AC"/>
<path d="M80.3125 84.1015C81.2266 83.9921 81.8984 83.4531 82.4844 82.0625C83.0703 80.6718 82.5469 79.75 81.9609 79.4062C81.3047 79.0156 80.6562 79.1484 80.5 79.2265C80.375 79.289 79.8594 79.7812 79.3437 80.4062C78.6406 81.25 78.0469 82.1562 78.0469 82.1562C78.0469 82.1562 79.0234 84.2578 80.3125 84.1015Z" fill="#489DF6"/>
<path d="M111.148 66.6561C110.922 66.8827 111.148 81.8046 111.328 81.9296C111.508 82.0468 125.352 82.1093 125.531 81.9296C125.711 81.7499 123.758 66.6014 123.516 66.4217C123.281 66.2421 111.383 66.4217 111.148 66.6561Z" fill="#AFE3FB"/>
<path d="M46.7263 150.02H49.3063C49.3063 151.46 49.1929 152.833 48.9663 154.14C48.7529 155.447 48.3529 156.687 47.7663 157.86C47.1796 159.033 46.3463 160.133 45.2663 161.16C44.1863 162.187 42.7796 163.14 41.0463 164.02L39.6263 161.98C41.0663 161.26 42.2463 160.493 43.1663 159.68C44.0996 158.853 44.8196 157.973 45.3263 157.04C45.8463 156.093 46.2063 155.067 46.4063 153.96C46.6196 152.853 46.7263 151.653 46.7263 150.36V150.02ZM40.7863 150.02H48.2863V152.14H40.7863V150.02ZM46.7863 154.56V156.6L40.1463 157.24L39.8063 154.98L46.7863 154.56ZM51.5463 148.22H54.2263V166.74H51.5463V148.22ZM53.5463 155.32H56.8063V157.5H53.5463V155.32ZM61.5647 148.66H75.3847V150.66H61.5647V148.66ZM61.7047 152.92H75.2247V154.92H61.7047V152.92ZM63.9247 149.44H66.5847V154.28H63.9247V149.44ZM70.3647 149.44H73.0247V154.28H70.3647V149.44ZM60.1047 155.88H76.8647V157.96H60.1047V155.88ZM67.1447 157.14H69.7847V159.72H67.1447V157.14ZM62.0247 159.12H74.8247V163.74H64.6847V165.46H62.0447V161.96H72.2047V161.02H62.0247V159.12ZM62.0447 164.72H75.3247V166.66H62.0447V164.72ZM84.8031 149.26C85.6298 149.26 86.3631 149.44 87.0031 149.8C87.6431 150.16 88.1431 150.667 88.5031 151.32C88.8631 151.96 89.0431 152.7 89.0431 153.54C89.0431 154.393 88.8631 155.147 88.5031 155.8C88.1431 156.44 87.6431 156.947 87.0031 157.32C86.3631 157.68 85.6298 157.86 84.8031 157.86C83.9898 157.86 83.2631 157.68 82.6231 157.32C81.9831 156.947 81.4831 156.44 81.1231 155.8C80.7631 155.147 80.5831 154.393 80.5831 153.54C80.5831 152.687 80.7631 151.947 81.1231 151.32C81.4831 150.68 81.9831 150.18 82.6231 149.82C83.2631 149.447 83.9898 149.26 84.8031 149.26ZM84.8031 151.4C84.4431 151.4 84.1231 151.487 83.8431 151.66C83.5631 151.82 83.3498 152.06 83.2031 152.38C83.0565 152.7 82.9831 153.087 82.9831 153.54C82.9831 154.007 83.0565 154.4 83.2031 154.72C83.3498 155.027 83.5631 155.267 83.8431 155.44C84.1231 155.613 84.4431 155.7 84.8031 155.7C85.1631 155.7 85.4831 155.613 85.7631 155.44C86.0431 155.267 86.2565 155.027 86.4031 154.72C86.5631 154.4 86.6431 154.007 86.6431 153.54C86.6431 153.087 86.5631 152.7 86.4031 152.38C86.2565 152.06 86.0431 151.82 85.7631 151.66C85.4831 151.487 85.1631 151.4 84.8031 151.4ZM93.7631 148.26H96.3031V158.32H93.7631V148.26ZM91.6231 152.12H94.5431V154.26H91.6231V152.12ZM89.8631 148.6H92.3431V158.2H89.8631V148.6ZM83.7231 159.1H86.3431V160.76H93.6831V159.1H96.3031V166.58H83.7231V159.1ZM86.3431 162.82V164.44H93.6831V162.82H86.3431ZM119.937 148.22H122.617V166.8H119.937V148.22ZM122.037 155.08H125.297V157.28H122.037V155.08ZM108.817 160.16H110.377C111.43 160.16 112.417 160.147 113.337 160.12C114.257 160.08 115.15 160.02 116.017 159.94C116.884 159.847 117.77 159.72 118.677 159.56L118.937 161.76C118.004 161.92 117.084 162.047 116.177 162.14C115.284 162.233 114.364 162.293 113.417 162.32C112.47 162.347 111.457 162.36 110.377 162.36H108.817V160.16ZM108.817 149.94H117.457V152.08H111.477V161.2H108.817V149.94ZM128.515 157.26H145.275V159.36H128.515V157.26ZM135.695 158.62H138.395V162.54H135.695V158.62ZM130.475 164.32H143.455V166.46H130.475V164.32ZM130.475 160.9H133.155V164.86H130.475V160.9ZM136.875 148.58C138.209 148.58 139.375 148.74 140.375 149.06C141.375 149.367 142.149 149.813 142.695 150.4C143.255 150.973 143.535 151.653 143.535 152.44C143.535 153.213 143.255 153.887 142.695 154.46C142.149 155.033 141.375 155.48 140.375 155.8C139.375 156.12 138.209 156.28 136.875 156.28C135.555 156.28 134.395 156.12 133.395 155.8C132.395 155.48 131.615 155.033 131.055 154.46C130.495 153.887 130.215 153.213 130.215 152.44C130.215 151.653 130.495 150.973 131.055 150.4C131.615 149.813 132.395 149.367 133.395 149.06C134.395 148.74 135.555 148.58 136.875 148.58ZM136.875 150.7C136.102 150.7 135.429 150.767 134.855 150.9C134.295 151.033 133.855 151.227 133.535 151.48C133.229 151.733 133.075 152.053 133.075 152.44C133.075 152.8 133.229 153.113 133.535 153.38C133.855 153.647 134.295 153.847 134.855 153.98C135.429 154.1 136.102 154.16 136.875 154.16C137.662 154.16 138.335 154.1 138.895 153.98C139.469 153.847 139.909 153.647 140.215 153.38C140.522 153.113 140.675 152.8 140.675 152.44C140.675 152.053 140.522 151.733 140.215 151.48C139.909 151.227 139.469 151.033 138.895 150.9C138.335 150.767 137.662 150.7 136.875 150.7Z" fill="black"/>
</svg>
