<svg width="none" height="none" viewBox="0 0 40 40" fill="none" xmlns="http://www.w3.org/2000/svg">
<path d="M28.1022 29.6756L29.6756 28.1022L21.1111 19.5378V8.88889H18.8889V20.4622L28.1022 29.6756ZM20.0067 40C17.2422 40 14.6422 39.4756 12.2067 38.4267C9.77259 37.3763 7.65481 35.9511 5.85333 34.1511C4.05185 32.3511 2.62593 30.2356 1.57556 27.8044C0.525185 25.3733 0 22.7741 0 20.0067C0 17.2393 0.525185 14.6393 1.57556 12.2067C2.62444 9.77259 4.04741 7.65481 5.84444 5.85333C7.64148 4.05185 9.75778 2.62593 12.1933 1.57556C14.6289 0.525185 17.2289 0 19.9933 0C22.7578 0 25.3578 0.525185 27.7933 1.57556C30.2274 2.62444 32.3452 4.04815 34.1467 5.84667C35.9481 7.64518 37.3741 9.76148 38.4244 12.1956C39.4748 14.6296 40 17.2289 40 19.9933C40 22.7578 39.4756 25.3578 38.4267 27.7933C37.3778 30.2289 35.9526 32.3467 34.1511 34.1467C32.3496 35.9467 30.2341 37.3726 27.8044 38.4244C25.3748 39.4763 22.7756 40.0015 20.0067 40ZM20 37.7778C24.9259 37.7778 29.1207 36.0467 32.5844 32.5844C36.0481 29.1222 37.7793 24.9274 37.7778 20C37.7763 15.0726 36.0452 10.8778 32.5844 7.41556C29.1237 3.95333 24.9289 2.22222 20 2.22222C15.0711 2.22222 10.8763 3.95407 7.41556 7.41778C3.95481 10.8815 2.2237 15.0756 2.22222 20C2.22074 24.9244 3.95259 29.1193 7.41778 32.5844C10.883 36.0496 15.077 37.7807 20 37.7778Z" fill="none"/>
</svg>
