<svg width="current" height="current" viewBox="0 0 19 12" fill="current" xmlns="http://www.w3.org/2000/svg">
<path d="M9.75558 0.919271C9.10334 0.875319 8.56487 1.39222 8.56487 2.03303C8.56487 2.28108 8.64586 2.5102 8.78279 2.69526C7.02412 2.89321 5.39177 3.66954 4.11803 4.92995C2.77292 6.25816 1.96439 7.98679 1.80132 9.85216H1.53225C1.19227 9.85216 0.916667 10.1278 0.916667 10.4677C0.916667 10.8077 1.19228 11.0833 1.53226 11.0833H1.84754H2.76966H3.83078H13.9606H15.476H17.5101H17.8271C18.1661 11.0833 18.441 10.8085 18.441 10.4694C18.441 10.1304 18.1661 9.85555 17.8271 9.85555H17.5563C17.3932 7.99349 16.5847 6.26166 15.2397 4.93348C13.966 3.66972 12.3336 2.89326 10.5781 2.69528C10.7277 2.49264 10.811 2.23624 10.796 1.9607L10.796 1.95972C10.7593 1.40635 10.3127 0.95598 9.75558 0.919271ZM9.75558 0.919271C9.75554 0.919269 9.75551 0.919267 9.75547 0.919264L9.75 1.00242L9.75561 0.919273C9.7556 0.919273 9.75559 0.919272 9.75558 0.919271ZM8.88027 2.68489C8.9022 2.71173 8.92545 2.73743 8.94993 2.76191C8.91499 2.76514 8.88009 2.76859 8.84525 2.77227L8.88027 2.68489ZM9.67881 3.87585C13.1098 3.87585 15.9691 6.50368 16.3231 9.85216H14.4013H3.03453C3.38856 6.50367 6.24785 3.87585 9.67881 3.87585Z" fill="#07A37E" stroke="#07A37E" stroke-width="0.166667"/>
</svg>
