<svg width="78" height="70" viewBox="0 0 78 70" fill="none" xmlns="http://www.w3.org/2000/svg">
<path d="M44.79 45.75H33.21C30.47 45.75 28.25 43.52 28.25 40.78V33.37C28.25 32.01 29.09 30.3 30.17 29.46L35.56 25.26C37.18 24 39.77 23.94 41.45 25.12L47.63 29.45C48.82 30.28 49.75 32.06 49.75 33.51V40.79C49.75 43.52 47.53 45.75 44.79 45.75ZM36.48 26.44L31.09 30.64C30.38 31.2 29.75 32.47 29.75 33.37V40.78C29.75 42.69 31.3 44.25 33.21 44.25H44.79C46.7 44.25 48.25 42.7 48.25 40.79V33.51C48.25 32.55 47.56 31.22 46.77 30.68L40.59 26.35C39.45 25.55 37.57 25.59 36.48 26.44Z" fill="black"/>
<path d="M39 41.75C38.59 41.75 38.25 41.41 38.25 41V38C38.25 37.59 38.59 37.25 39 37.25C39.41 37.25 39.75 37.59 39.75 38V41C39.75 41.41 39.41 41.75 39 41.75Z" fill="black"/>
</svg>