<svg width="150" height="150" viewBox="0 0 126 138" fill="none" xmlns="http://www.w3.org/2000/svg">
<rect x="1.56116" y="0.101562" width="124" height="136.854" rx="8" transform="rotate(0.453196 1.56116 0.101562)" fill="white"/>
<g clip-path="url(#clip0_1579_4599)">
<path d="M55.1088 53.003L55.2044 40.9049C55.2091 40.3572 55.3536 39.8198 55.6242 39.3436C55.8948 38.8675 56.2827 38.4684 56.7509 38.1842C57.219 37.9001 57.7521 37.7402 58.2994 37.7199C58.8467 37.6996 59.3901 37.8195 59.8781 38.0682L71.9284 44.213C72.4595 44.4844 72.9046 44.8982 73.2139 45.4082C73.5231 45.9181 73.6845 46.5041 73.6797 47.1005C73.675 47.6969 73.5045 48.2802 73.1871 48.7852C72.8698 49.2902 72.4183 49.6969 71.883 49.9599L59.7369 55.9133C59.2451 56.1542 58.6999 56.2655 58.1529 56.2365C57.606 56.2076 57.0756 56.0393 56.6119 55.7478C56.1483 55.4562 55.7668 55.0511 55.5038 54.5707C55.2407 54.0903 55.1047 53.5507 55.1088 53.003Z" fill="#2859C5"/>
<path fill-rule="evenodd" clip-rule="evenodd" d="M66.8713 24.8158C66.2404 24.7119 65.5941 24.8629 65.0746 25.2355C64.555 25.6082 64.2047 26.1719 64.1009 26.8028C63.997 27.4337 64.148 28.08 64.5206 28.5996C64.8933 29.1191 65.4571 29.4694 66.0879 29.5733C70.4673 30.3141 74.4076 32.6756 77.1256 36.1885C79.8436 39.7014 81.1402 44.1084 80.7577 48.5335C80.3752 52.9586 78.3416 57.0777 75.0612 60.0722C71.7808 63.0666 67.4937 64.717 63.0522 64.6954C59.5074 64.6688 56.0524 63.5772 53.1358 61.5623C50.2193 59.5473 47.9758 56.7021 46.6968 53.396C46.4531 52.8186 45.9941 52.3588 45.4171 52.1141C44.8401 51.8694 44.1905 51.859 43.606 52.0851C43.0215 52.3112 42.548 52.7561 42.2859 53.3254C42.0239 53.8947 41.9938 54.5437 42.2022 55.1348C44.0946 60.0145 47.6287 64.0821 52.1961 66.6377C56.7636 69.1934 62.079 70.0772 67.2278 69.1373C72.3765 68.1973 77.0367 65.4923 80.4065 61.4876C83.7764 57.4829 85.6451 52.429 85.6913 47.1953C85.7348 41.8346 83.8628 36.6345 80.4124 32.5315C76.962 28.4286 72.1601 25.6924 66.8713 24.8158ZM58.9072 29.5422C59.4997 29.3635 60.0006 28.9638 60.3065 28.4259C60.6124 27.888 60.6997 27.253 60.5504 26.6525C60.4011 26.052 60.0266 25.5319 59.5044 25.1999C58.9822 24.8679 58.3524 24.7494 57.7452 24.8689C56.7156 25.1257 55.7055 25.455 54.7224 25.8543C54.4291 25.9736 54.1622 26.1494 53.9369 26.3718C53.7116 26.5942 53.5323 26.8588 53.4093 27.1505C53.1608 27.7396 53.1565 28.4033 53.3973 28.9956C53.5165 29.2888 53.6924 29.5557 53.9148 29.781C54.1372 30.0063 54.4018 30.1856 54.6935 30.3087C55.2826 30.5572 55.9463 30.5615 56.5385 30.3206C57.3039 30.0095 58.0934 29.7522 58.9072 29.5486M50.9845 33.9186C51.4233 33.472 51.671 32.8722 51.6755 32.2462C51.6799 31.6202 51.4406 31.017 51.0082 30.5642C50.5758 30.1115 49.9843 29.8447 49.3587 29.8203C48.7331 29.7959 48.1226 30.0159 47.6563 30.4336C46.1199 31.8971 44.7984 33.5705 43.7308 35.4041C43.5716 35.6779 43.4679 35.9803 43.4255 36.2941C43.3832 36.608 43.4031 36.9271 43.4841 37.2332C43.5651 37.5393 43.7057 37.8265 43.8976 38.0784C44.0896 38.3302 44.3294 38.5418 44.6031 38.7009C44.8769 38.8601 45.1793 38.9639 45.4931 39.0062C45.807 39.0485 46.126 39.0286 46.4322 38.9476C46.7383 38.8666 47.0255 38.7261 47.2773 38.5341C47.5292 38.3421 47.7407 38.1024 47.8999 37.8286C48.7407 36.3823 49.7797 35.0662 50.9845 33.9186ZM45.7098 44.0729C45.7626 43.7572 45.752 43.4341 45.6786 43.1226C45.6052 42.811 45.4705 42.5172 45.2823 42.2582C45.0942 41.9992 44.8563 41.7804 44.5827 41.6143C44.309 41.4482 44.0051 41.3383 43.6885 41.291C43.3719 41.2437 43.0491 41.2599 42.7388 41.3387C42.4286 41.4174 42.1371 41.5572 41.8815 41.7498C41.6258 41.9424 41.4111 42.184 41.2498 42.4605C41.0885 42.737 40.9839 43.0428 40.942 43.3602C40.7852 44.4088 40.7027 45.4673 40.6952 46.5276C40.6901 47.1669 40.9393 47.7821 41.3878 48.2378C41.8363 48.6934 42.4474 48.9522 43.0868 48.9573C43.7261 48.9624 44.3413 48.7132 44.7969 48.2647C45.2526 47.8162 45.5114 47.2051 45.5165 46.5657C45.5232 45.7172 45.5876 44.8862 45.7098 44.0729Z" fill="#8FBFFA"/>
</g>
<path d="M43.0251 88.7793L45.1311 88.7959L45.125 89.5699C45.0996 92.7738 42.5582 95.4718 38.1792 96.0852L37.2585 94.1518C41.0963 93.6782 43.0035 91.5152 43.019 89.5533L43.0251 88.7793ZM43.4751 88.7829L45.5631 88.7994L45.5569 89.5733C45.5416 91.5173 47.4321 93.7283 51.244 94.2625L50.3108 96.1812C45.9421 95.4986 43.4437 92.7607 43.469 89.5568L43.4751 88.7829ZM42.9634 98.8591L45.3393 98.8779L45.2911 104.98L42.9151 104.961L42.9634 98.8591ZM36.6936 97.2975L51.7591 97.4166L51.7437 99.3606L36.6782 99.2414L36.6936 97.2975ZM55.869 96.7651L57.1469 96.7752C59.9728 96.7976 61.7194 96.7394 63.7561 96.3955L63.993 98.3054C61.9021 98.6669 60.0476 98.7242 57.1317 98.7012L55.8537 98.6911L55.869 96.7651ZM55.9082 89.5292L63.234 89.5872L63.1914 94.969L58.2596 94.93L58.2358 97.9359L55.8599 97.9171L55.8979 93.1112L60.8297 93.1503L60.843 91.4763L55.8931 91.4372L55.9082 89.5292ZM66.8607 88.4998L69.2546 88.5188L69.1572 100.83L66.7633 100.811L66.8607 88.4998ZM64.177 90.9807L67.2909 91.0053L67.2759 92.8952L64.162 92.8706L64.177 90.9807ZM58.0169 102.848L69.5546 102.94L69.5393 104.866L58.0017 104.774L58.0169 102.848ZM58.0411 99.7884L60.4171 99.8072L60.3872 103.587L58.0112 103.568L58.0411 99.7884ZM64.1472 94.7425L67.2611 94.7672L67.246 96.6751L64.1321 96.6505L64.1472 94.7425ZM78.0129 98.7043L80.4068 98.7233L80.3855 101.423L77.9916 101.404L78.0129 98.7043ZM85.3828 88.6283L87.7768 88.6473L87.6449 105.315L85.251 105.296L85.3828 88.6283ZM74.1313 102.436L73.8585 100.508C76.8826 100.513 80.9144 100.545 84.428 100.105L84.5764 101.834C80.9532 102.472 77.0832 102.459 74.1313 102.436ZM74.2627 90.3764L84.2884 90.4557L84.2736 92.3277L74.2479 92.2484L74.2627 90.3764ZM79.2464 92.9539C81.7124 92.9734 83.4123 94.2469 83.3977 96.1009C83.3829 97.9728 81.663 99.2192 79.197 99.1997C76.7671 99.1805 75.0671 97.907 75.0819 96.0351C75.0966 94.1811 76.8165 92.9347 79.2464 92.9539ZM79.2322 94.7539C78.1522 94.7453 77.3746 95.2072 77.3679 96.0532C77.361 96.9171 78.1313 97.3912 79.2113 97.3998C80.3272 97.4086 81.1049 96.9467 81.1118 96.0828C81.1184 95.2368 80.3482 94.7627 79.2322 94.7539ZM78.0925 88.6427L80.4864 88.6616L80.4639 91.5055L78.07 91.4866L78.0925 88.6427ZM57.3156 108.407L59.7276 108.426L59.6609 116.85L57.249 116.831L57.3156 108.407ZM48.5314 117.5L59.6551 117.588L59.6194 122.106L50.8716 122.036L50.8584 123.71L48.5185 123.692L48.5454 120.29L57.2571 120.359L57.2648 119.387L48.5171 119.318L48.5314 117.5ZM48.5236 123.044L60.0252 123.135L60.0106 124.989L48.5089 124.898L48.5236 123.044ZM49.7709 108.725L51.7508 108.741L51.7409 110.001C51.7165 113.079 50.1465 115.856 46.8808 116.821L45.7437 114.922C48.5403 114.098 49.7448 112.019 49.7609 109.985L49.7709 108.725ZM50.2569 108.729L52.2188 108.745L52.2088 110.005C52.1932 111.985 53.3478 113.938 56.0596 114.733L54.8929 116.578C51.6964 115.617 50.2231 112.995 50.2469 109.989L50.2569 108.729ZM75.2615 108.567L77.6555 108.586L77.5666 119.817L75.1727 119.799L75.2615 108.567ZM76.7723 113.277L79.7062 113.3L79.6906 115.28L76.7567 115.257L76.7723 113.277ZM71.9855 119.935C75.5854 119.964 77.6479 120.916 77.6344 122.626C77.6209 124.336 75.5437 125.238 71.9438 125.209C68.3439 125.181 66.2812 124.246 66.2948 122.536C66.3083 120.826 68.3856 119.907 71.9855 119.935ZM71.9718 121.663C69.7039 121.645 68.6938 121.907 68.6887 122.555C68.6837 123.185 69.6895 123.463 71.9575 123.481C74.1894 123.499 75.2175 123.237 75.2225 122.607C75.2276 121.959 74.2038 121.681 71.9718 121.663ZM68.1478 115.837L70.5417 115.856L70.5224 118.304L68.1284 118.285L68.1478 115.837ZM64.4124 119.281L64.1567 117.479C67.1266 117.503 71.0866 117.516 74.4561 117.093L74.6232 118.714C71.1265 119.299 67.3103 119.304 64.4124 119.281ZM64.6506 109.653L74.1003 109.728L74.0866 111.456L64.6369 111.381L64.6506 109.653ZM69.3675 111.832C71.8334 111.852 73.4103 112.764 73.3986 114.24C73.3869 115.716 71.7958 116.604 69.3299 116.584C66.864 116.565 65.2692 115.652 65.2808 114.176C65.2925 112.7 66.9016 111.813 69.3675 111.832ZM69.3554 113.362C68.2214 113.353 67.5532 113.636 67.5488 114.194C67.5442 114.77 68.2081 115.045 69.342 115.054C70.476 115.063 71.1261 114.798 71.1307 114.222C71.1351 113.664 70.4894 113.371 69.3554 113.362ZM68.2069 108.367L70.6008 108.386L70.5844 110.456L68.1905 110.437L68.2069 108.367Z" fill="black"/>
<defs>
<clipPath id="clip0_1579_4599">
<rect width="45" height="45" fill="white" transform="translate(40.8707 24.3398) rotate(0.453196)"/>
</clipPath>
</defs>
</svg>
