<svg width="200" height="200" viewBox="0 0 186 193" fill="none" xmlns="http://www.w3.org/2000/svg">
<rect x="2.21069" width="200" height="191" rx="8" transform="rotate(0.453196 2.21069 0)" fill="white"/>
<path d="M66.5673 66.0229V50.1167L65.286 50.1948V40.3979L77.6454 40.3198V49.9683H76.3641V59.312L66.5673 66.0229Z" fill="#AB5832"/>
<path d="M101.684 46.0151L66.1844 81.687L66.4579 114.664L136.575 114L136.677 78.8433L101.684 46.0151Z" fill="#FFF3E1"/>
<path d="M64.8563 108.875L67.3094 107.523V80.8979L65.0282 82.4214C65.0204 82.4214 65.2782 108.875 64.8563 108.875ZM135.349 82.3354V107.359L137.802 108.71V83.2651L135.349 82.3354Z" fill="#5F4E47"/>
<path d="M101.927 49.8276L65.0204 84.3667V75.6558L101.966 40.6636L137.802 77.7729V85.1245L101.927 49.8276Z" fill="#BCAA93"/>
<path d="M61.4032 74.1636L59.2391 78.1558L65.0438 78.0698C65.0438 78.0698 101.255 42.8511 102.036 42.8198C102.981 42.7808 137.786 78.687 137.786 78.687L142.934 78.6089L104.309 36.9995L98.6376 36.6245L61.4032 74.1636Z" fill="#AB5832"/>
<path d="M54.7236 77.1555C54.1142 77.8977 54.7158 78.2883 55.2079 78.2883C55.7001 78.2883 61.372 78.1243 61.372 78.1243L100.466 40.0852C100.466 40.0852 101.364 39.1633 102.005 39.1946C102.7 39.2258 103.599 40.1087 103.599 40.1087L142.88 78.6165C142.88 78.6165 147.356 78.6321 148.067 78.4524C148.841 78.2649 148.45 77.5305 147.497 76.5071C146.794 75.7493 107.083 36.468 106.427 35.7883C104.474 33.7727 103.52 32.6008 101.677 32.679C99.8251 32.7571 98.7314 34.1243 96.8798 35.8274C96.3329 36.343 54.9814 76.843 54.7236 77.1555Z" fill="#ED6C31"/>
<path d="M124.645 90.937H132.653V84.273C132.653 83.9785 132.595 83.6869 132.483 83.4149C132.37 83.1429 132.205 82.8957 131.996 82.6875C131.788 82.4793 131.541 82.3141 131.269 82.2014C130.997 82.0888 130.705 82.0308 130.411 82.0308H124.645V90.937ZM122.239 90.937V82.0308H115.989C115.695 82.0308 115.403 82.0888 115.131 82.2014C114.859 82.3141 114.612 82.4793 114.404 82.6875C114.195 82.8957 114.03 83.1429 113.918 83.4149C113.805 83.6869 113.747 83.9785 113.747 84.273V90.9448H122.239V90.937ZM122.239 93.4683H113.747V99.7183C113.747 100.313 113.983 100.883 114.404 101.304C114.824 101.724 115.394 101.96 115.989 101.96H122.239V93.4683ZM124.645 93.4683V101.96H130.411C131.006 101.96 131.576 101.724 131.996 101.304C132.417 100.883 132.653 100.313 132.653 99.7183V93.4683H124.645ZM80.3094 90.937H88.3173V84.273C88.3173 83.9785 88.2593 83.6869 88.1466 83.4149C88.0339 83.1429 87.8687 82.8957 87.6605 82.6875C87.4523 82.4793 87.2052 82.3141 86.9331 82.2014C86.6611 82.0888 86.3695 82.0308 86.0751 82.0308H80.3094V90.937ZM77.8954 90.937V82.0308H71.6454C71.3509 82.0308 71.0594 82.0888 70.7873 82.2014C70.5153 82.3141 70.2681 82.4793 70.0599 82.6875C69.8517 82.8957 69.6866 83.1429 69.5739 83.4149C69.4612 83.6869 69.4032 83.9785 69.4032 84.273V90.9448H77.8954V90.937ZM77.8954 93.4683H69.411V99.7183C69.411 100.313 69.6472 100.883 70.0677 101.304C70.4882 101.724 71.0585 101.96 71.6532 101.96H77.9032V93.4683H77.8954ZM80.3094 93.4683V101.96H86.0751C86.6697 101.96 87.24 101.724 87.6605 101.304C88.081 100.883 88.3173 100.313 88.3173 99.7183V93.4683H80.3094Z" fill="#A6CFD5"/>
<path d="M90.9266 111.172C90.9266 111.172 90.8094 91.8434 90.9266 86.9606C91.0438 82.0856 95.6219 77.8669 100.927 78.0466C107.489 78.2731 110.864 81.9606 111.106 86.7184C111.348 91.4762 111.348 111.468 111.348 111.468L90.9266 111.172Z" fill="#D27857"/>
<path d="M93.372 112.218C93.372 112.218 93.2782 91.6246 93.372 87.8121C93.4892 83.0855 97.0517 80.6011 101.192 80.8355C106.013 81.1089 108.395 83.6714 108.583 87.398C108.77 91.1168 108.77 112.234 108.77 112.234L93.372 112.218Z" fill="#AB5932"/>
<path d="M106.278 95.4292C106.263 92.0386 106.231 89.0464 106.184 88.1324C106.059 85.6714 104.309 83.7574 100.911 83.6402C98.1688 83.5464 95.911 85.687 95.8485 88.2105C95.8251 89.1402 95.8329 92.062 95.8485 95.3902L106.278 95.4292ZM95.872 99.2339C95.9032 103.773 95.9423 107.953 95.9423 107.953L106.309 107.984C106.309 107.984 106.309 103.82 106.294 99.2808L95.872 99.2339Z" fill="#D27857"/>
<path d="M106.309 97.1715C106.27 98.2731 106.716 99.1637 108.02 99.1637C109.325 99.1637 109.802 98.5544 109.895 97.3747C109.974 96.32 109.247 95.3825 108.02 95.4606C106.802 95.5466 106.341 96.3981 106.309 97.1715Z" fill="#FFBA02"/>
<path d="M113.794 118.656C113.794 118.656 122.294 118.741 128.434 118.562C134.575 118.382 139.02 118.656 139.934 117.734C140.848 116.82 140.833 109.031 136.575 106.921C132.661 104.984 130.13 106.952 128.786 107.085C127.013 107.265 124.817 106.163 123.208 106.132C116.559 105.991 114.231 111.218 114.231 111.218L113.794 118.656ZM62.9501 118.015C63.661 118.679 69.0907 118.702 75.6454 118.656C82.2001 118.609 87.4735 118.671 87.4735 118.671L88.5673 112.054L87.2391 110.952C87.2391 110.952 87.3876 107.64 83.2079 106.507C80.3173 105.726 77.8016 107.015 75.3719 107.054C72.9423 107.101 70.7001 105.999 67.9969 106.64C65.4813 107.234 63.5204 108.874 62.7235 112.187C62.1688 114.484 62.3094 117.413 62.9501 118.015Z" fill="#728037"/>
<path d="M86.6923 125.578L86.747 118.664H87.2548L87.247 110.96H114.38L114.286 118.664H114.88V125.398C114.872 125.39 86.6923 125.617 86.6923 125.578Z" fill="#B0B0B0"/>
<path d="M114.872 122.554V125.39L86.6844 125.578L86.7079 122.531L114.872 122.554ZM87.2391 115.664L114.309 115.671V118.656H87.2391V115.664Z" fill="#9B9B9B"/>
<path d="M57.7645 139.75L60.9564 139.775L60.7806 161.998L57.5887 161.973L57.7645 139.75ZM60.1679 148.433L64.0798 148.464L64.0589 151.104L60.147 151.073L60.1679 148.433ZM43.3871 142.9L56.3467 143.002L56.3266 145.546L43.367 145.444L43.3871 142.9ZM49.8847 146.767C50.9567 146.776 51.9148 147.015 52.7591 147.486C53.6036 147.941 54.2627 148.562 54.7365 149.35C55.2262 150.138 55.467 151.052 55.4588 152.092C55.4506 153.132 55.1953 154.05 54.693 154.846C54.2068 155.626 53.5379 156.245 52.6862 156.702C51.8507 157.143 50.889 157.36 49.801 157.351C48.7291 157.343 47.7629 157.111 46.9024 156.656C46.0581 156.185 45.3911 155.556 44.9013 154.768C44.4276 153.964 44.1949 153.043 44.2031 152.003C44.2114 150.963 44.4586 150.053 44.9448 149.272C45.447 148.492 46.1238 147.882 46.9753 147.44C47.843 146.983 48.8128 146.759 49.8847 146.767ZM49.8642 149.359C49.3522 149.355 48.9034 149.456 48.5178 149.661C48.1322 149.866 47.8258 150.167 47.5986 150.565C47.3715 150.964 47.2556 151.451 47.2511 152.027C47.2466 152.587 47.3548 153.076 47.5755 153.493C47.7963 153.895 48.0978 154.209 48.48 154.437C48.8624 154.648 49.3095 154.755 49.8215 154.759C50.3175 154.763 50.7583 154.663 51.1439 154.458C51.5297 154.237 51.8362 153.927 52.0633 153.529C52.2906 153.115 52.4065 152.628 52.4109 152.068C52.4154 151.492 52.3073 151.003 52.0865 150.601C51.8657 150.199 51.5641 149.893 51.1817 149.682C50.7994 149.471 50.3602 149.363 49.8642 149.359ZM48.3059 140.035L51.5218 140.06L51.4911 143.948L48.2752 143.923L48.3059 140.035ZM82.1276 148.318L86.0395 148.349L86.0186 150.989L82.1067 150.958L82.1276 148.318ZM79.7943 139.876L83.0102 139.901L82.8344 162.124L79.6185 162.099L79.7943 139.876ZM66.2658 141.905L69.4337 141.93L69.3244 155.753L66.1565 155.728L66.2658 141.905ZM66.1707 153.928L68.0667 153.943C69.6506 153.956 71.2991 153.905 73.012 153.791C74.725 153.676 76.4788 153.45 78.2736 153.112L78.5891 155.707C76.7301 156.076 74.92 156.326 73.159 156.456C71.398 156.57 69.6935 156.62 68.0456 156.607L66.1497 156.592L66.1707 153.928ZM102.952 140.083L106.143 140.108L106.045 152.564L102.853 152.539L102.952 140.083ZM88.9257 141.268L92.0936 141.293L92.0213 150.437L88.8534 150.412L88.9257 141.268ZM88.8667 148.732L90.7866 148.747C92.7225 148.762 94.5069 148.72 96.1398 148.621C97.7887 148.506 99.4306 148.271 101.065 147.916L101.429 150.487C99.7302 150.858 98.0242 151.108 96.3111 151.239C94.6141 151.353 92.7657 151.403 90.7657 151.387L88.8458 151.372L88.8667 148.732ZM91.254 153.383L106.037 153.5L105.969 162.115L91.1858 161.999L91.254 153.383ZM102.898 155.995L94.3539 155.927L94.3256 159.503L102.869 159.571L102.898 155.995ZM133.009 148.721L136.921 148.752L136.9 151.392L132.988 151.361L133.009 148.721ZM130.676 140.278L133.891 140.304L133.716 162.527L130.5 162.502L130.676 140.278ZM117.147 142.307L120.315 142.332L120.206 156.156L117.038 156.131L117.147 142.307ZM117.052 154.331L118.948 154.346C120.532 154.358 122.18 154.307 123.893 154.193C125.606 154.079 127.36 153.852 129.155 153.515L129.47 156.109C127.611 156.478 125.801 156.728 124.04 156.858C122.279 156.972 120.575 157.023 118.927 157.01L117.031 156.995L117.052 154.331ZM152.801 140.453L155.993 140.478L155.817 162.774L152.625 162.749L152.801 140.453ZM155.206 148.897L159.118 148.927L159.097 151.543L155.186 151.512L155.206 148.897ZM139.367 154.867L141.214 154.882C142.478 154.892 143.663 154.885 144.767 154.862C145.871 154.839 146.943 154.783 147.984 154.696C149.041 154.592 150.114 154.456 151.203 154.289L151.471 156.859C150.35 157.042 149.244 157.186 148.156 157.289C147.083 157.377 145.978 157.44 144.842 157.479C143.706 157.518 142.49 157.532 141.194 157.522L139.346 157.507L139.367 154.867ZM139.418 142.243L149.642 142.324L149.574 150.94L142.542 150.884L142.502 155.9L139.359 155.875L139.418 148.34L146.426 148.395L146.454 144.867L139.398 144.811L139.418 142.243ZM59.0133 180.119C57.3214 180.105 56.0714 179.591 55.2634 178.577C54.4555 177.551 54.0596 176.017 54.0757 173.977C54.0918 171.949 54.5118 170.435 55.3357 169.433C56.1597 168.432 57.4176 167.938 59.1096 167.951C60.8135 167.965 62.0695 168.478 62.8775 169.493C63.6855 170.507 64.0815 172.028 64.0654 174.056C64.0493 176.096 63.6232 177.623 62.7872 178.636C61.9632 179.638 60.7053 180.132 59.0133 180.119ZM59.0239 178.787C60.0318 178.795 60.8087 178.429 61.3546 177.689C61.9006 176.937 62.1802 175.722 62.1935 174.042C62.2068 172.362 61.9463 171.154 61.4121 170.417C60.878 169.669 60.107 169.291 59.099 169.283C58.0911 169.275 57.3141 169.641 56.7683 170.381C56.2345 171.108 55.961 172.312 55.9477 173.992C55.9344 175.672 56.1888 176.892 56.7108 177.652C57.2449 178.401 58.0159 178.779 59.0239 178.787ZM72.4103 169.64L68.0184 169.606L68.0085 170.866L66.1005 170.85L66.121 168.258L74.4908 168.325L74.4835 169.243L70.0788 179.936L68.1709 179.921L72.4103 169.64ZM74.3446 178.386L76.0185 178.399L76.006 179.983L74.332 179.97L74.3446 178.386ZM79.0811 178.693L80.143 178.702C80.407 178.704 80.5874 178.651 80.6843 178.544C80.7932 178.437 80.8485 178.263 80.8504 178.023L80.9122 170.212L79.1579 171.26L78.4473 170.066L81.1787 168.378L82.8167 168.391L82.7404 178.038C82.7385 178.278 82.7911 178.453 82.8982 178.562C83.0054 178.67 83.1909 178.726 83.4549 178.728L84.4989 178.736L84.4885 180.05L79.0707 180.007L79.0811 178.693ZM87.3933 178.759L88.4553 178.767C88.7193 178.77 88.8997 178.717 88.9965 178.61C89.1054 178.503 89.1608 178.329 89.1627 178.089L89.2245 170.277L87.4701 171.325L86.7595 170.132L89.491 168.443L91.1289 168.456L91.0526 178.104C91.0507 178.344 91.1033 178.518 91.2105 178.627C91.3176 178.736 91.5032 178.792 91.7672 178.794L92.8111 178.802L92.8007 180.116L87.3829 180.073L87.3933 178.759ZM95.2066 175.905C95.2135 175.041 95.4107 174.382 95.7983 173.929C96.198 173.465 96.7878 173.235 97.5678 173.241C97.9398 173.244 98.2693 173.301 98.5565 173.411C98.8556 173.522 99.1903 173.68 99.5607 173.887C99.9072 174.082 100.194 174.228 100.421 174.326C100.661 174.412 100.918 174.456 101.194 174.458C101.614 174.461 101.903 174.368 102.061 174.177C102.218 173.974 102.298 173.675 102.302 173.279L103.814 173.291C103.799 175.079 103.024 175.967 101.488 175.954C101.08 175.951 100.715 175.888 100.392 175.766C100.081 175.643 99.7222 175.472 99.3159 175.253C98.9693 175.071 98.6944 174.942 98.4909 174.869C98.2996 174.783 98.0839 174.74 97.8439 174.738C97.436 174.734 97.1472 174.834 96.9776 175.037C96.808 175.227 96.7217 175.521 96.7186 175.917L95.2066 175.905ZM111.119 180.531C109.427 180.517 108.177 180.004 107.369 178.989C106.561 177.963 106.165 176.429 106.182 174.39C106.198 172.362 106.618 170.847 107.442 169.845C108.265 168.844 109.523 168.35 111.215 168.363C112.919 168.377 114.175 168.891 114.983 169.905C115.791 170.919 116.187 172.441 116.171 174.469C116.155 176.509 115.729 178.035 114.893 179.049C114.069 180.05 112.811 180.544 111.119 180.531ZM111.13 179.199C112.138 179.207 112.915 178.841 113.46 178.101C114.006 177.35 114.286 176.134 114.299 174.454C114.313 172.774 114.052 171.566 113.518 170.829C112.984 170.081 112.213 169.703 111.205 169.695C110.197 169.687 109.42 170.053 108.874 170.793C108.34 171.521 108.067 172.724 108.053 174.404C108.04 176.084 108.295 177.304 108.817 178.065C109.351 178.813 110.122 179.191 111.13 179.199ZM124.516 170.052L120.124 170.018L120.114 171.278L118.206 171.263L118.227 168.671L126.597 168.737L126.589 169.655L122.185 180.348L120.277 180.333L124.516 170.052ZM126.45 178.798L128.124 178.811L128.112 180.395L126.438 180.382L126.45 178.798ZM131.187 179.105L132.249 179.114C132.513 179.116 132.693 179.063 132.79 178.956C132.899 178.849 132.954 178.675 132.956 178.435L133.018 170.624L131.264 171.672L130.553 170.478L133.285 168.79L134.922 168.803L134.846 178.45C134.844 178.69 134.897 178.865 135.004 178.974C135.111 179.083 135.297 179.138 135.561 179.14L136.605 179.148L136.594 180.462L131.176 180.419L131.187 179.105ZM143.05 180.783C142.234 180.777 141.473 180.657 140.767 180.423C140.073 180.19 139.476 179.855 138.975 179.419L138.989 177.727L140.878 177.742L140.87 178.822C141.515 179.235 142.263 179.445 143.115 179.452C143.967 179.459 144.58 179.283 144.955 178.926C145.342 178.569 145.539 177.959 145.546 177.095C145.556 175.775 144.823 175.109 143.347 175.098L141.907 175.086L141.918 173.754L143.412 173.766C144.768 173.777 145.451 173.098 145.462 171.73C145.467 171.13 145.272 170.685 144.879 170.394C144.485 170.09 143.94 169.936 143.244 169.931C142.476 169.924 141.785 170.057 141.171 170.328L141.163 171.408L139.273 171.393L139.286 169.719C139.769 169.375 140.365 169.104 141.074 168.905C141.784 168.695 142.505 168.593 143.237 168.598C144.461 168.608 145.449 168.874 146.201 169.396C146.965 169.906 147.343 170.671 147.335 171.691C147.325 172.903 146.796 173.817 145.747 174.432C146.859 174.957 147.41 175.832 147.4 177.056C147.39 178.364 147.028 179.315 146.315 179.909C145.615 180.504 144.526 180.795 143.05 180.783Z" fill="#1f9edd"/>
</svg>
