<svg width="150" height="150" viewBox="0 0 126 138" fill="none" xmlns="http://www.w3.org/2000/svg">
<rect x="1.48254" y="0.0175781" width="124" height="136.854" rx="8" transform="rotate(0.453196 1.48254 0.0175781)" fill="white"/>
<g clip-path="url(#clip0_1579_4602)" filter="url(#filter0_d_1579_4602)">
<path d="M87.5758 92.7016L39.7855 92.3236C39.6386 92.3224 39.4933 92.2924 39.3581 92.2351C39.2228 92.1778 39.1001 92.0944 38.997 91.9897C38.894 91.885 38.8126 91.7611 38.7574 91.6249C38.7023 91.4887 38.6746 91.343 38.6758 91.1961L39.2117 23.4355C39.2129 23.2886 39.2429 23.1433 39.3002 23.0081C39.3575 22.8728 39.4408 22.7501 39.5455 22.647C39.6502 22.544 39.7742 22.4626 39.9104 22.4074C40.0466 22.3523 40.1923 22.3245 40.3392 22.3257L67.7895 22.5429L89.0785 44.1713L88.7034 91.5918C88.701 91.8885 88.5809 92.1721 88.3694 92.3802C88.158 92.5883 87.8725 92.7039 87.5758 92.7016Z" fill="#F9E7C0"/>
<path d="M67.7896 22.543L89.0785 44.1714L72.1809 44.0378C69.6618 44.0178 67.6358 41.9596 67.6558 39.4405L67.7894 22.543L67.7896 22.543Z" fill="#EAC083"/>
<path d="M60.3463 35.1171L45.4957 34.9996C44.6553 34.993 43.9795 34.3064 43.9861 33.466C43.9928 32.6256 44.6794 31.9497 45.5198 31.9564L60.3704 32.0738C61.2108 32.0805 61.8867 32.7671 61.88 33.6075C61.8734 34.4479 61.1867 35.1238 60.3463 35.1171ZM61.8012 43.5676C61.8079 42.7272 61.132 42.0405 60.2916 42.0339L45.441 41.9164C44.6006 41.9098 43.914 42.5856 43.9073 43.426C43.9007 44.2664 44.5766 44.953 45.4169 44.9597L60.2676 45.0772C61.1079 45.0838 61.7946 44.4079 61.8012 43.5676ZM61.7224 53.5278C61.7291 52.6874 61.0532 52.0007 60.2128 51.9941L45.3622 51.8766C44.5219 51.87 43.8352 52.5458 43.8286 53.3862C43.8219 54.2266 44.4978 54.9132 45.3382 54.9199L60.1888 55.0374C61.0292 55.0439 61.7158 54.3681 61.7224 53.5278ZM74.5 63.5895C74.5067 62.7493 73.8308 62.0625 72.9904 62.0558L45.2835 61.8367C44.4431 61.83 43.7564 62.5059 43.7498 63.3463C43.7431 64.1867 44.419 64.8733 45.2594 64.88L72.9663 65.0991C73.8067 65.1058 74.4934 64.4299 74.5 63.5895ZM79.7046 53.67C79.7113 52.8296 79.0354 52.143 78.195 52.1363L67.9435 52.0552C67.1033 52.0486 66.4165 52.7245 66.4098 53.5648C66.4032 54.4052 67.079 55.0919 67.9194 55.0985L78.171 55.1796C79.0113 55.1861 79.698 54.5104 79.7046 53.67ZM68.9081 73.5061C68.9147 72.6659 68.2389 71.9791 67.3985 71.9724L45.2047 71.7969C44.3643 71.7902 43.6776 72.4661 43.671 73.3065C43.6644 74.1469 44.3402 74.8335 45.1806 74.8402L67.3744 75.0157C68.2148 75.0222 68.9014 74.3464 68.9081 73.5061ZM77.8812 83.5378C77.8878 82.6975 77.2119 82.0107 76.3716 82.0041L45.1259 81.7569C44.2855 81.7503 43.5989 82.4262 43.5922 83.2665C43.5856 84.1069 44.2614 84.7936 45.1018 84.8002L76.3475 85.0474C77.1877 85.054 77.8745 84.3781 77.8812 83.5378Z" fill="#597B91"/>
</g>
<path d="M37.8947 107.207L40.3066 107.226L40.1748 123.893L37.7629 123.874L37.8947 107.207ZM39.6441 113.611L42.578 113.634L42.5625 115.596L39.6286 115.573L39.6441 113.611ZM33.5072 108.9L35.8651 108.919C35.8519 110.587 35.5994 112.163 35.1077 113.647C34.6279 115.131 33.8371 116.493 32.7353 117.732C31.6455 118.96 30.173 120.028 28.3178 120.937L26.9822 119.109C28.4522 118.364 29.6649 117.522 30.6203 116.581C31.5878 115.641 32.3043 114.573 32.7697 113.376C33.2473 112.168 33.492 110.82 33.5038 109.332L33.5072 108.9ZM27.9813 108.856L34.7491 108.91L34.7339 110.836L27.9661 110.782L27.9813 108.856ZM57.2447 107.36L59.6386 107.379L59.5064 124.1L57.1124 124.081L57.2447 107.36ZM50.6476 108.478C51.4996 108.484 52.2536 108.736 52.9097 109.234C53.5659 109.719 54.0764 110.413 54.4413 111.316C54.8183 112.207 55.002 113.258 54.9924 114.47C54.9827 115.694 54.7823 116.755 54.3912 117.652C54.0122 118.537 53.4907 119.222 52.8269 119.709C52.1631 120.184 51.4052 120.418 50.5532 120.411C49.7133 120.405 48.9652 120.159 48.309 119.674C47.6529 119.176 47.1364 118.482 46.7594 117.591C46.3946 116.688 46.217 115.625 46.2267 114.401C46.2362 113.189 46.4305 112.14 46.8096 111.255C47.2007 110.358 47.7281 109.673 48.3919 109.198C49.0557 108.711 49.8077 108.471 50.6476 108.478ZM50.6304 110.656C50.2224 110.652 49.8613 110.794 49.547 111.079C49.2328 111.365 48.9834 111.789 48.7989 112.351C48.6266 112.902 48.5371 113.591 48.5306 114.419C48.5241 115.235 48.6026 115.932 48.7661 116.509C48.9416 117.074 49.1842 117.502 49.4939 117.793C49.8036 118.083 50.1625 118.23 50.5705 118.233C50.9905 118.237 51.3576 118.096 51.6719 117.81C51.9861 117.525 52.2295 117.1 52.4019 116.538C52.5865 115.963 52.682 115.268 52.6885 114.452C52.695 113.624 52.6105 112.933 52.4348 112.38C52.2713 111.815 52.0347 111.387 51.725 111.096C51.4153 110.806 51.0504 110.659 50.6304 110.656ZM66.0759 115.152L77.7936 115.245L77.7786 117.135L66.061 117.042L66.0759 115.152ZM64.2723 120.16L79.3738 120.279L79.3584 122.223L64.2569 122.104L64.2723 120.16ZM66.126 108.816L77.7177 108.908L77.7023 110.852L68.4866 110.779L68.4456 115.963L66.0697 115.944L66.126 108.816ZM89.1566 117.009L91.5505 117.027L91.5304 119.565L89.1365 119.546L89.1566 117.009ZM82.8501 115.519L97.9337 115.638L97.9186 117.546L82.8351 117.427L82.8501 115.519ZM84.4979 118.844L96.0895 118.935L96.0465 124.371L93.6526 124.352L93.6807 120.806L84.4829 120.734L84.4979 118.844ZM84.8355 108.028L87.1934 108.047L87.1818 109.505L93.6976 109.556L93.7092 108.098L96.0851 108.117L96.0343 114.543L84.7846 114.454L84.8355 108.028ZM87.1676 111.305L87.1574 112.601L93.6732 112.652L93.6834 111.356L87.1676 111.305Z" fill="black"/>
<defs>
<filter id="filter0_d_1579_4602" x="25.754" y="22.2305" width="74.5515" height="74.5513" filterUnits="userSpaceOnUse" color-interpolation-filters="sRGB">
<feFlood flood-opacity="0" result="BackgroundImageFix"/>
<feColorMatrix in="SourceAlpha" type="matrix" values="0 0 0 0 0 0 0 0 0 0 0 0 0 0 0 0 0 0 127 0" result="hardAlpha"/>
<feOffset dy="2"/>
<feGaussianBlur stdDeviation="1"/>
<feComposite in2="hardAlpha" operator="out"/>
<feColorMatrix type="matrix" values="0 0 0 0 0 0 0 0 0 0 0 0 0 0 0 0 0 0 0.25 0"/>
<feBlend mode="normal" in2="BackgroundImageFix" result="effect1_dropShadow_1579_4602"/>
<feBlend mode="normal" in="SourceGraphic" in2="effect1_dropShadow_1579_4602" result="shape"/>
</filter>
<clipPath id="clip0_1579_4602">
<rect width="70" height="70" fill="white" transform="translate(28.3077 22.2305) rotate(0.453196)"/>
</clipPath>
</defs>
</svg>
