<svg width="200" height="200" viewBox="0 0 186 193" fill="none" xmlns="http://www.w3.org/2000/svg">
<rect x="2.21069" width="200" height="191" rx="8" transform="rotate(0.453196 2.21069 0)" fill="white"/>
<path d="M66.5673 66.0229V50.1167L65.286 50.1948V40.3979L77.6454 40.3198V49.9683H76.3641V59.312L66.5673 66.0229Z" fill="#AB5832"/>
<path d="M101.684 46.0151L66.1844 81.687L66.4579 114.664L136.575 114L136.677 78.8433L101.684 46.0151Z" fill="#FFF3E1"/>
<path d="M64.8563 108.875L67.3094 107.523V80.8979L65.0282 82.4214C65.0204 82.4214 65.2782 108.875 64.8563 108.875ZM135.349 82.3354V107.359L137.802 108.71V83.2651L135.349 82.3354Z" fill="#5F4E47"/>
<path d="M101.927 49.8276L65.0204 84.3667V75.6558L101.966 40.6636L137.802 77.7729V85.1245L101.927 49.8276Z" fill="#BCAA93"/>
<path d="M61.4032 74.1636L59.2391 78.1558L65.0438 78.0698C65.0438 78.0698 101.255 42.8511 102.036 42.8198C102.981 42.7808 137.786 78.687 137.786 78.687L142.934 78.6089L104.309 36.9995L98.6376 36.6245L61.4032 74.1636Z" fill="#AB5832"/>
<path d="M54.7236 77.1555C54.1142 77.8977 54.7158 78.2883 55.2079 78.2883C55.7001 78.2883 61.372 78.1243 61.372 78.1243L100.466 40.0852C100.466 40.0852 101.364 39.1633 102.005 39.1946C102.7 39.2258 103.599 40.1087 103.599 40.1087L142.88 78.6165C142.88 78.6165 147.356 78.6321 148.067 78.4524C148.841 78.2649 148.45 77.5305 147.497 76.5071C146.794 75.7493 107.083 36.468 106.427 35.7883C104.474 33.7727 103.52 32.6008 101.677 32.679C99.8251 32.7571 98.7314 34.1243 96.8798 35.8274C96.3329 36.343 54.9814 76.843 54.7236 77.1555Z" fill="#ED6C31"/>
<path d="M124.645 90.937H132.653V84.273C132.653 83.9785 132.595 83.6869 132.483 83.4149C132.37 83.1429 132.205 82.8957 131.996 82.6875C131.788 82.4793 131.541 82.3141 131.269 82.2014C130.997 82.0888 130.705 82.0308 130.411 82.0308H124.645V90.937ZM122.239 90.937V82.0308H115.989C115.695 82.0308 115.403 82.0888 115.131 82.2014C114.859 82.3141 114.612 82.4793 114.404 82.6875C114.195 82.8957 114.03 83.1429 113.918 83.4149C113.805 83.6869 113.747 83.9785 113.747 84.273V90.9448H122.239V90.937ZM122.239 93.4683H113.747V99.7183C113.747 100.313 113.983 100.883 114.404 101.304C114.824 101.724 115.394 101.96 115.989 101.96H122.239V93.4683ZM124.645 93.4683V101.96H130.411C131.006 101.96 131.576 101.724 131.996 101.304C132.417 100.883 132.653 100.313 132.653 99.7183V93.4683H124.645ZM80.3094 90.937H88.3173V84.273C88.3173 83.9785 88.2593 83.6869 88.1466 83.4149C88.0339 83.1429 87.8687 82.8957 87.6605 82.6875C87.4523 82.4793 87.2052 82.3141 86.9331 82.2014C86.6611 82.0888 86.3695 82.0308 86.0751 82.0308H80.3094V90.937ZM77.8954 90.937V82.0308H71.6454C71.3509 82.0308 71.0594 82.0888 70.7873 82.2014C70.5153 82.3141 70.2681 82.4793 70.0599 82.6875C69.8517 82.8957 69.6866 83.1429 69.5739 83.4149C69.4612 83.6869 69.4032 83.9785 69.4032 84.273V90.9448H77.8954V90.937ZM77.8954 93.4683H69.411V99.7183C69.411 100.313 69.6472 100.883 70.0677 101.304C70.4882 101.724 71.0585 101.96 71.6532 101.96H77.9032V93.4683H77.8954ZM80.3094 93.4683V101.96H86.0751C86.6697 101.96 87.24 101.724 87.6605 101.304C88.081 100.883 88.3173 100.313 88.3173 99.7183V93.4683H80.3094Z" fill="#A6CFD5"/>
<path d="M90.9266 111.172C90.9266 111.172 90.8094 91.8434 90.9266 86.9606C91.0438 82.0856 95.6219 77.8669 100.927 78.0466C107.489 78.2731 110.864 81.9606 111.106 86.7184C111.348 91.4762 111.348 111.468 111.348 111.468L90.9266 111.172Z" fill="#D27857"/>
<path d="M93.372 112.218C93.372 112.218 93.2782 91.6246 93.372 87.8121C93.4892 83.0855 97.0517 80.6011 101.192 80.8355C106.013 81.1089 108.395 83.6714 108.583 87.398C108.77 91.1168 108.77 112.234 108.77 112.234L93.372 112.218Z" fill="#AB5932"/>
<path d="M106.278 95.4292C106.263 92.0386 106.231 89.0464 106.184 88.1324C106.059 85.6714 104.309 83.7574 100.911 83.6402C98.1688 83.5464 95.911 85.687 95.8485 88.2105C95.8251 89.1402 95.8329 92.0621 95.8485 95.3902L106.278 95.4292ZM95.872 99.2339C95.9032 103.773 95.9423 107.953 95.9423 107.953L106.309 107.984C106.309 107.984 106.309 103.82 106.294 99.2808L95.872 99.2339Z" fill="#D27857"/>
<path d="M106.309 97.1715C106.27 98.2731 106.716 99.1637 108.02 99.1637C109.325 99.1637 109.802 98.5544 109.895 97.3747C109.974 96.32 109.247 95.3825 108.02 95.4606C106.802 95.5466 106.341 96.3981 106.309 97.1715Z" fill="#FFBA02"/>
<path d="M113.794 118.656C113.794 118.656 122.294 118.741 128.434 118.562C134.575 118.382 139.02 118.656 139.934 117.734C140.848 116.82 140.833 109.031 136.575 106.921C132.661 104.984 130.13 106.952 128.786 107.085C127.013 107.265 124.817 106.163 123.208 106.132C116.559 105.991 114.231 111.218 114.231 111.218L113.794 118.656ZM62.9501 118.015C63.661 118.679 69.0907 118.702 75.6454 118.656C82.2001 118.609 87.4735 118.671 87.4735 118.671L88.5673 112.054L87.2391 110.952C87.2391 110.952 87.3876 107.64 83.2079 106.507C80.3173 105.726 77.8016 107.015 75.3719 107.054C72.9423 107.101 70.7001 105.999 67.9969 106.64C65.4813 107.234 63.5204 108.874 62.7235 112.187C62.1688 114.484 62.3094 117.413 62.9501 118.015Z" fill="#728037"/>
<path d="M86.6923 125.578L86.747 118.664H87.2548L87.247 110.96H114.38L114.286 118.664H114.88V125.398C114.872 125.39 86.6923 125.617 86.6923 125.578Z" fill="#B0B0B0"/>
<path d="M114.872 122.554V125.39L86.6844 125.578L86.7079 122.531L114.872 122.554ZM87.2391 115.664L114.309 115.671V118.656H87.2391V115.664Z" fill="#9B9B9B"/>
<path d="M57.7645 139.75L60.9564 139.775L60.7806 161.998L57.5887 161.973L57.7645 139.75ZM60.1679 148.433L64.0798 148.464L64.0589 151.104L60.147 151.073L60.1679 148.433ZM43.3871 142.9L56.3467 143.002L56.3266 145.546L43.367 145.444L43.3871 142.9ZM49.8847 146.767C50.9567 146.776 51.9148 147.015 52.7591 147.486C53.6036 147.941 54.2627 148.562 54.7365 149.35C55.2262 150.138 55.467 151.052 55.4588 152.092C55.4506 153.132 55.1953 154.05 54.693 154.846C54.2068 155.626 53.5379 156.245 52.6862 156.702C51.8507 157.143 50.889 157.36 49.801 157.351C48.7291 157.343 47.7629 157.111 46.9024 156.656C46.0581 156.185 45.3911 155.556 44.9013 154.768C44.4276 153.964 44.1949 153.043 44.2031 152.003C44.2114 150.963 44.4586 150.053 44.9448 149.272C45.447 148.492 46.1238 147.882 46.9753 147.44C47.843 146.983 48.8128 146.759 49.8847 146.767ZM49.8642 149.359C49.3522 149.355 48.9034 149.456 48.5178 149.661C48.1322 149.866 47.8258 150.167 47.5986 150.565C47.3715 150.964 47.2556 151.451 47.2511 152.027C47.2466 152.587 47.3548 153.076 47.5755 153.493C47.7963 153.895 48.0978 154.209 48.48 154.437C48.8624 154.648 49.3095 154.755 49.8215 154.759C50.3175 154.763 50.7583 154.663 51.1439 154.458C51.5297 154.237 51.8362 153.927 52.0633 153.529C52.2906 153.115 52.4065 152.628 52.4109 152.068C52.4154 151.492 52.3073 151.003 52.0865 150.601C51.8657 150.199 51.5641 149.893 51.1817 149.682C50.7994 149.471 50.3602 149.363 49.8642 149.359ZM48.3059 140.035L51.5218 140.06L51.4911 143.948L48.2752 143.923L48.3059 140.035ZM82.1276 148.318L86.0395 148.349L86.0186 150.989L82.1067 150.958L82.1276 148.318ZM79.7943 139.876L83.0102 139.901L82.8344 162.124L79.6185 162.099L79.7943 139.876ZM66.2658 141.905L69.4337 141.93L69.3244 155.753L66.1565 155.728L66.2658 141.905ZM66.1707 153.928L68.0667 153.943C69.6506 153.956 71.2991 153.905 73.012 153.791C74.725 153.676 76.4788 153.45 78.2736 153.112L78.5891 155.707C76.7301 156.076 74.92 156.326 73.159 156.456C71.398 156.57 69.6935 156.62 68.0456 156.607L66.1497 156.592L66.1707 153.928ZM102.952 140.083L106.143 140.108L106.045 152.564L102.853 152.539L102.952 140.083ZM88.9257 141.268L92.0936 141.293L92.0213 150.437L88.8534 150.412L88.9257 141.268ZM88.8667 148.732L90.7866 148.747C92.7225 148.762 94.5069 148.72 96.1398 148.621C97.7887 148.506 99.4306 148.271 101.065 147.916L101.429 150.487C99.7302 150.858 98.0242 151.108 96.3111 151.239C94.6141 151.353 92.7657 151.403 90.7657 151.387L88.8458 151.372L88.8667 148.732ZM91.254 153.383L106.037 153.5L105.969 162.115L91.1858 161.999L91.254 153.383ZM102.898 155.995L94.3539 155.927L94.3256 159.503L102.869 159.571L102.898 155.995ZM133.009 148.721L136.921 148.752L136.9 151.392L132.988 151.361L133.009 148.721ZM130.676 140.278L133.891 140.304L133.716 162.527L130.5 162.502L130.676 140.278ZM117.147 142.307L120.315 142.332L120.206 156.156L117.038 156.131L117.147 142.307ZM117.052 154.331L118.948 154.346C120.532 154.358 122.18 154.307 123.893 154.193C125.606 154.079 127.36 153.852 129.155 153.515L129.47 156.109C127.611 156.478 125.801 156.728 124.04 156.858C122.279 156.972 120.575 157.023 118.927 157.01L117.031 156.995L117.052 154.331ZM152.801 140.453L155.993 140.478L155.817 162.774L152.625 162.749L152.801 140.453ZM155.206 148.897L159.118 148.927L159.097 151.543L155.186 151.512L155.206 148.897ZM139.367 154.867L141.214 154.882C142.478 154.892 143.663 154.885 144.767 154.862C145.871 154.839 146.943 154.783 147.984 154.696C149.041 154.592 150.114 154.456 151.203 154.289L151.471 156.859C150.35 157.042 149.244 157.186 148.156 157.289C147.083 157.377 145.978 157.44 144.842 157.479C143.706 157.518 142.49 157.532 141.194 157.522L139.346 157.507L139.367 154.867ZM139.418 142.243L149.642 142.324L149.574 150.94L142.542 150.884L142.502 155.9L139.359 155.875L139.418 148.34L146.426 148.395L146.454 144.867L139.398 144.811L139.418 142.243ZM59.1627 180.12C57.4708 180.106 56.2208 179.593 55.4128 178.578C54.6049 177.552 54.209 176.019 54.2252 173.979C54.2412 171.951 54.6612 170.436 55.4851 169.434C56.3091 168.433 57.567 167.939 59.259 167.952C60.9629 167.966 62.2189 168.48 63.0269 169.494C63.8349 170.508 64.2309 172.03 64.2148 174.058C64.1987 176.098 63.7726 177.624 62.9366 178.638C62.1126 179.639 60.8547 180.133 59.1627 180.12ZM59.1733 178.788C60.1812 178.796 60.9582 178.43 61.504 177.69C62.05 176.939 62.3296 175.723 62.3429 174.043C62.3562 172.363 62.0957 171.155 61.5615 170.418C61.0274 169.67 60.2564 169.292 59.2484 169.284C58.2405 169.276 57.4636 169.642 56.9177 170.382C56.3839 171.11 56.1104 172.313 56.0971 173.993C56.0838 175.673 56.3382 176.893 56.8602 177.654C57.3943 178.402 58.1653 178.78 59.1733 178.788ZM72.5597 169.641L68.1679 169.607L68.1579 170.867L66.25 170.852L66.2705 168.26L74.6402 168.326L74.6329 169.244L70.2282 179.937L68.3203 179.922L72.5597 169.641ZM74.494 178.387L76.1679 178.4L76.1554 179.984L74.4814 179.971L74.494 178.387ZM79.2305 178.695L80.2924 178.703C80.5564 178.705 80.7369 178.652 80.8337 178.545C80.9426 178.438 80.9979 178.264 80.9998 178.024L81.0616 170.213L79.3073 171.261L78.5967 170.067L81.3281 168.379L82.9661 168.392L82.8898 178.039C82.8879 178.279 82.9405 178.454 83.0476 178.563C83.1548 178.672 83.3403 178.727 83.6043 178.729L84.6483 178.737L84.6379 180.051L79.2201 180.008L79.2305 178.695ZM87.5427 178.76L88.6047 178.769C88.8687 178.771 89.0491 178.718 89.1459 178.611C89.2548 178.504 89.3102 178.33 89.3121 178.09L89.3739 170.278L87.6195 171.327L86.9089 170.133L89.6404 168.445L91.2783 168.457L91.202 178.105C91.2001 178.345 91.2527 178.52 91.3599 178.628C91.467 178.737 91.6526 178.793 91.9166 178.795L92.9605 178.803L92.9502 180.117L87.5323 180.074L87.5427 178.76ZM95.356 175.906C95.3629 175.042 95.5601 174.384 95.9477 173.931C96.3474 173.466 96.9372 173.236 97.7172 173.243C98.0892 173.246 98.4187 173.302 98.7059 173.412C99.005 173.523 99.3398 173.681 99.7101 173.888C100.057 174.083 100.343 174.229 100.571 174.327C100.81 174.413 101.068 174.457 101.344 174.459C101.764 174.463 102.052 174.369 102.21 174.178C102.368 173.975 102.448 173.676 102.451 173.28L103.963 173.292C103.949 175.08 103.174 175.968 101.638 175.956C101.23 175.952 100.864 175.89 100.541 175.767C100.23 175.645 99.8716 175.474 99.4653 175.254C99.1188 175.072 98.8438 174.944 98.6403 174.87C98.449 174.784 98.2333 174.741 97.9934 174.739C97.5854 174.736 97.2966 174.835 97.127 175.038C96.9574 175.229 96.8711 175.522 96.868 175.918L95.356 175.906ZM111.269 180.532C109.577 180.519 108.327 180.005 107.519 178.99C106.711 177.964 106.315 176.431 106.331 174.391C106.347 172.363 106.767 170.848 107.591 169.847C108.415 168.845 109.673 168.351 111.365 168.364C113.069 168.378 114.325 168.892 115.133 169.906C115.941 170.921 116.337 172.442 116.321 174.47C116.304 176.51 115.878 178.036 115.042 179.05C114.218 180.051 112.96 180.545 111.269 180.532ZM111.279 179.2C112.287 179.208 113.064 178.842 113.61 178.102C114.156 177.351 114.435 176.135 114.449 174.455C114.462 172.775 114.202 171.567 113.667 170.831C113.133 170.082 112.362 169.704 111.354 169.696C110.346 169.688 109.569 170.054 109.023 170.794C108.49 171.522 108.216 172.726 108.203 174.406C108.19 176.085 108.444 177.306 108.966 178.066C109.5 178.814 110.271 179.192 111.279 179.2ZM124.666 170.054L120.274 170.019L120.264 171.279L118.356 171.264L118.376 168.672L126.746 168.738L126.739 169.656L122.334 180.349L120.426 180.334L124.666 170.054ZM126.6 178.799L128.274 178.812L128.261 180.396L126.587 180.383L126.6 178.799ZM131.336 179.107L132.398 179.115C132.662 179.117 132.843 179.065 132.94 178.957C133.048 178.85 133.104 178.677 133.106 178.437L133.167 170.625L131.413 171.673L130.702 170.479L133.434 168.791L135.072 168.804L134.996 178.452C134.994 178.692 135.046 178.866 135.153 178.975C135.261 179.084 135.446 179.139 135.71 179.141L136.754 179.15L136.744 180.463L131.326 180.421L131.336 179.107ZM139.124 179.528C139.132 178.436 139.47 177.503 140.136 176.728C140.802 175.953 141.767 175.265 143.032 174.663C143.924 174.238 144.539 173.829 144.878 173.436C145.229 173.03 145.408 172.468 145.413 171.748C145.418 171.136 145.224 170.684 144.83 170.393C144.448 170.09 143.904 169.936 143.196 169.93C142.392 169.924 141.701 170.062 141.122 170.346L141.114 171.408L139.242 171.393L139.255 169.701C139.762 169.369 140.364 169.104 141.062 168.905C141.759 168.695 142.468 168.592 143.188 168.598C144.436 168.608 145.43 168.88 146.17 169.414C146.922 169.936 147.294 170.719 147.285 171.763C147.28 172.399 147.156 172.95 146.912 173.416C146.681 173.882 146.305 174.311 145.786 174.703C145.279 175.083 144.58 175.485 143.688 175.91C142.821 176.323 142.163 176.786 141.715 177.299C141.279 177.811 141.058 178.44 141.052 179.184L147.1 179.231L147.09 180.545L139.116 180.482L139.124 179.528Z" fill="#F37C42"/>
</svg>
