<svg width="150" height="150" viewBox="0 0 186 193" fill="none" xmlns="http://www.w3.org/2000/svg">
<rect x="0.204468" y="0.0175781" width="185" height="192" rx="8" fill="white"/>
<g clip-path="url(#clip0_1579_4605)">
<path d="M101.927 50.9063C101.704 50.9063 101.371 50.9063 101.149 51.0174V45.1285C101.149 42.6841 99.1489 40.6841 96.7044 40.6841C94.8155 40.6841 93.26 41.7952 92.5933 43.3507C91.9267 41.7952 90.3711 40.6841 88.4822 40.6841C86.0378 40.6841 84.0378 42.6841 84.0378 45.1285V51.0174C83.8156 51.0174 83.4822 50.9063 83.26 50.9063C80.8156 50.9063 78.8156 52.9063 78.8156 55.3507V90.573C78.8156 93.0174 80.8156 95.0174 83.26 95.0174C84.4822 95.0174 85.7044 94.4619 86.4822 93.6841C87.0378 94.0174 87.8156 94.2396 88.4822 94.2396V94.4619H99.7044C100.371 94.7952 101.038 95.0174 101.927 95.0174C104.371 95.0174 106.371 93.0174 106.371 90.573V55.3507C106.371 52.9063 104.482 50.9063 101.927 50.9063Z" fill="#EDC0A2"/>
<path d="M126.816 87.462C126.482 86.9065 126.149 86.462 125.705 86.0176C121.816 82.1287 113.705 84.1287 107.482 90.3509C101.26 96.5732 99.2601 104.795 103.149 108.573C103.482 108.906 103.705 109.129 104.038 109.351L112.705 118.018H132.482L132.705 93.3509L126.816 87.462Z" fill="#2859C5"/>
<path d="M120.593 85.24C120.371 84.7956 120.038 84.3511 119.593 84.0178C112.038 77.3511 103.482 67.5734 103.482 64.1289V46.5734C103.482 44.1289 101.482 42.1289 99.0378 42.1289C96.5934 42.1289 94.5934 44.1289 94.5934 46.5734V82.6845C94.5934 96.5734 102.704 104.573 103.038 104.907C103.704 105.462 104.593 105.907 105.482 106.129H106.371C108.371 106.129 112.482 105.351 117.482 100.351C123.26 94.6845 122.149 88.24 120.593 85.24Z" fill="#FFD3B6"/>
<path d="M77.8156 90.3509C71.5934 84.1287 63.3712 82.1287 59.5934 86.0176C59.1489 86.462 58.8156 86.9065 58.4823 87.462L52.5934 93.3509L52.7045 118.018H72.4823L81.1489 109.351C81.4823 109.129 81.8156 108.906 82.0378 108.573C86.0378 104.684 84.0378 96.5732 77.8156 90.3509Z" fill="#2859C5"/>
<path d="M86.26 42.1289C83.8156 42.1289 81.8156 44.1289 81.8156 46.5734V64.1289C81.8156 67.5734 73.3711 77.3511 65.7045 84.0178C65.26 84.3511 64.9267 84.7956 64.7045 85.24C63.1489 88.24 62.0378 94.6845 67.7045 100.462C72.7045 105.462 76.8156 106.24 78.8156 106.24H79.7045C80.5934 106.129 81.4822 105.684 82.1489 105.018C82.4822 104.684 90.5934 96.7956 90.5934 82.7956V46.5734C90.7045 44.1289 88.7045 42.1289 86.26 42.1289Z" fill="#FFD3B6"/>
<path d="M113.26 53.3508C113.371 53.3508 113.371 53.3508 113.482 53.2397L121.371 48.7953C121.482 48.6841 121.593 48.573 121.593 48.4619C121.593 48.3508 121.593 48.2397 121.482 48.1286L118.038 44.6841C117.927 44.6841 117.816 44.573 117.593 44.6841C117.482 44.6841 117.371 44.7953 117.26 44.9064L112.816 52.7953C112.704 53.0175 112.704 53.1286 112.927 53.3508H113.26ZM64.3711 48.9064L72.26 53.3508C72.3711 53.3508 72.3711 53.4619 72.4822 53.4619C72.8156 53.4619 72.9267 53.2397 72.9267 53.0175C72.9267 52.9064 72.9267 52.7953 72.8156 52.6841L68.4822 44.9064C68.3711 44.6841 68.26 44.6841 68.1489 44.6841C68.0378 44.6841 67.9267 44.6841 67.8156 44.7953L64.3711 48.2397C64.26 48.3508 64.26 48.4619 64.26 48.573C64.26 48.6841 64.26 48.7953 64.3711 48.9064ZM121.704 58.7953C121.593 58.6841 121.482 58.6841 121.371 58.6841L112.704 61.1286C112.482 61.1286 112.371 61.3508 112.371 61.573C112.371 61.7953 112.482 61.9064 112.704 62.0175L121.371 64.4619H121.482C121.593 64.4619 121.704 64.4619 121.704 64.3508C121.816 64.2397 121.927 64.1286 121.927 64.0175V59.1286C121.816 59.0175 121.816 58.7953 121.704 58.7953ZM73.1489 61.1286L64.4822 58.6841C64.3711 58.6841 64.26 58.6841 64.1489 58.7953C63.9267 58.7953 63.8156 59.0175 63.8156 59.1286V63.9064C63.8156 64.0175 63.9267 64.1286 64.0378 64.2397C64.1489 64.3508 64.26 64.3508 64.26 64.3508H64.3711L73.0378 61.9064C73.26 61.9064 73.3711 61.6841 73.3711 61.4619C73.3711 61.2397 73.26 61.1286 73.1489 61.1286Z" fill="#00BEEA"/>
</g>
<path d="M32.6169 133.93H35.8089V147.298H32.6169V133.93ZM34.9449 139.402H38.7609V142.018H34.9449V139.402ZM21.3609 148.282H35.8089V155.914H21.3609V148.282ZM32.6889 150.778H24.5049V153.394H32.6889V150.778ZM18.3369 135.898H31.3929V138.418H18.3369V135.898ZM24.8649 139.09C25.9529 139.09 26.9049 139.258 27.7209 139.594C28.5369 139.93 29.1769 140.402 29.6409 141.01C30.1049 141.602 30.3369 142.298 30.3369 143.098C30.3369 143.882 30.1049 144.578 29.6409 145.186C29.1769 145.778 28.5369 146.242 27.7209 146.578C26.9049 146.914 25.9529 147.082 24.8649 147.082C23.7929 147.082 22.8409 146.914 22.0089 146.578C21.1929 146.242 20.5529 145.778 20.0889 145.186C19.6249 144.578 19.3929 143.882 19.3929 143.098C19.3929 142.298 19.6249 141.602 20.0889 141.01C20.5529 140.402 21.1929 139.93 22.0089 139.594C22.8409 139.258 23.7929 139.09 24.8649 139.09ZM24.8649 141.442C24.1609 141.442 23.5849 141.586 23.1369 141.874C22.6889 142.146 22.4649 142.554 22.4649 143.098C22.4649 143.642 22.6889 144.058 23.1369 144.346C23.5849 144.618 24.1609 144.754 24.8649 144.754C25.5849 144.754 26.1609 144.618 26.5929 144.346C27.0409 144.058 27.2649 143.642 27.2649 143.098C27.2649 142.554 27.0409 142.146 26.5929 141.874C26.1609 141.586 25.5849 141.442 24.8649 141.442ZM23.2809 133.762H26.4489V137.266H23.2809V133.762ZM45.127 136.426H47.815C47.815 137.834 47.767 139.21 47.671 140.554C47.591 141.882 47.431 143.17 47.191 144.418C46.951 145.666 46.615 146.874 46.183 148.042C45.767 149.21 45.215 150.354 44.527 151.474L42.055 150.13C42.711 149.106 43.239 148.09 43.639 147.082C44.039 146.058 44.343 145.01 44.551 143.938C44.775 142.866 44.927 141.738 45.007 140.554C45.087 139.354 45.127 138.066 45.127 136.69V136.426ZM42.799 136.426H46.831V138.994H42.799V136.426ZM50.071 136.426H52.759C52.759 137.882 52.719 139.314 52.639 140.722C52.575 142.13 52.431 143.514 52.207 144.874C51.999 146.234 51.671 147.554 51.223 148.834C50.791 150.114 50.199 151.354 49.447 152.554L47.023 151.186C47.583 150.306 48.047 149.418 48.415 148.522C48.799 147.626 49.103 146.714 49.327 145.786C49.551 144.858 49.711 143.914 49.807 142.954C49.919 141.978 49.991 140.978 50.023 139.954C50.055 138.914 50.071 137.842 50.071 136.738V136.426ZM48.463 136.426H51.895V138.994H48.463V136.426ZM58.663 133.93H61.687V156.154H58.663V133.93ZM51.679 142.258H54.847V144.802H51.679V142.258ZM54.343 134.386H57.343V155.146H54.343V134.386ZM90.0395 133.906H93.2315V156.13H90.0395V133.906ZM83.4875 136.21H86.6315C86.6315 137.906 86.4635 139.53 86.1275 141.082C85.8075 142.618 85.2635 144.066 84.4955 145.426C83.7435 146.786 82.7035 148.05 81.3755 149.218C80.0635 150.37 78.4235 151.426 76.4555 152.386L74.7755 149.866C76.9195 148.826 78.6235 147.682 79.8875 146.434C81.1675 145.17 82.0875 143.746 82.6475 142.162C83.2075 140.562 83.4875 138.77 83.4875 136.786V136.21ZM75.9755 136.21H84.9755V138.754H75.9755V136.21ZM101.158 143.818H116.782V146.386H101.158V143.818ZM98.8057 151.042H118.942V153.658H98.8057V151.042ZM107.254 144.994H110.422V151.882H107.254V144.994ZM101.158 135.442H116.614V137.986H104.326V144.922H101.158V135.442ZM122.86 137.266H133.492V139.786H122.86V137.266ZM128.212 140.794C129.156 140.794 129.988 141.018 130.708 141.466C131.444 141.914 132.02 142.538 132.436 143.338C132.868 144.122 133.084 145.034 133.084 146.074C133.084 147.114 132.868 148.034 132.436 148.834C132.02 149.618 131.444 150.234 130.708 150.682C129.988 151.13 129.156 151.354 128.212 151.354C127.268 151.354 126.428 151.13 125.692 150.682C124.956 150.234 124.38 149.618 123.964 148.834C123.548 148.034 123.34 147.114 123.34 146.074C123.34 145.034 123.548 144.122 123.964 143.338C124.38 142.538 124.956 141.914 125.692 141.466C126.444 141.018 127.284 140.794 128.212 140.794ZM128.212 143.434C127.828 143.434 127.476 143.538 127.156 143.746C126.836 143.954 126.588 144.258 126.412 144.658C126.236 145.042 126.148 145.514 126.148 146.074C126.148 146.634 126.236 147.114 126.412 147.514C126.588 147.914 126.836 148.218 127.156 148.426C127.476 148.618 127.828 148.714 128.212 148.714C128.612 148.714 128.964 148.618 129.268 148.426C129.572 148.218 129.812 147.914 129.988 147.514C130.164 147.114 130.252 146.634 130.252 146.074C130.252 145.514 130.164 145.042 129.988 144.658C129.812 144.258 129.572 143.954 129.268 143.746C128.964 143.538 128.612 143.434 128.212 143.434ZM138.94 133.906H141.964V156.13H138.94V133.906ZM136.276 142.954H139.924V145.522H136.276V142.954ZM134.26 134.314H137.236V155.194H134.26V134.314ZM126.652 134.506H129.796V138.85H126.652V134.506ZM151.378 145.21H154.57V151.426H151.378V145.21ZM159.442 145.21H162.634V151.426H159.442V145.21ZM146.962 150.97H167.098V153.562H146.962V150.97ZM156.994 135.01C158.594 135.01 160.018 135.258 161.266 135.754C162.53 136.25 163.514 136.946 164.218 137.842C164.938 138.722 165.298 139.77 165.298 140.986C165.298 142.186 164.938 143.234 164.218 144.13C163.514 145.01 162.53 145.698 161.266 146.194C160.018 146.69 158.594 146.938 156.994 146.938C155.41 146.938 153.986 146.69 152.722 146.194C151.474 145.698 150.49 145.01 149.77 144.13C149.05 143.234 148.69 142.186 148.69 140.986C148.69 139.77 149.05 138.722 149.77 137.842C150.49 136.946 151.474 136.25 152.722 135.754C153.986 135.258 155.41 135.01 156.994 135.01ZM156.994 137.482C155.97 137.482 155.066 137.626 154.282 137.914C153.514 138.186 152.914 138.578 152.482 139.09C152.05 139.602 151.834 140.234 151.834 140.986C151.834 141.706 152.05 142.33 152.482 142.858C152.914 143.37 153.514 143.77 154.282 144.058C155.066 144.33 155.97 144.466 156.994 144.466C158.034 144.466 158.938 144.33 159.706 144.058C160.49 143.77 161.09 143.37 161.506 142.858C161.938 142.33 162.154 141.706 162.154 140.986C162.154 140.234 161.938 139.602 161.506 139.09C161.09 138.578 160.49 138.186 159.706 137.914C158.938 137.626 158.034 137.482 156.994 137.482Z" fill="black"/>
<defs>
<clipPath id="clip0_1579_4605">
<rect width="80" height="80" fill="white" transform="translate(52.7045 38.0176)"/>
</clipPath>
</defs>
</svg>
