<svg width="150" height="150" viewBox="0 0 126 139" fill="none" xmlns="http://www.w3.org/2000/svg">
<rect x="1.63965" y="0.658691" width="124" height="136.854" rx="8" transform="rotate(0.453196 1.63965 0.658691)" fill="white"/>
<path d="M56.9528 70.9354L43.137 56.9742C43.0573 56.8937 42.9943 56.7982 42.9517 56.6933C42.909 56.5884 42.8875 56.476 42.8884 56.3628C42.8893 56.2495 42.9126 56.1376 42.9569 56.0333C43.0012 55.9291 43.0657 55.8347 43.1466 55.7554L46.69 52.2638C47.0286 51.9306 47.5715 51.9349 47.9048 52.2734L57.0004 61.4589C57.3337 61.7975 57.8806 61.798 58.2191 61.4647L78.6381 41.1724C78.9767 40.8353 79.5236 40.8396 79.8607 41.1782L83.3523 44.7255C83.6856 45.064 83.6813 45.607 83.3466 45.9403L61.1009 68.0346L61.1047 68.0385L58.1715 70.9412C57.8329 71.2744 57.2861 71.2701 56.9528 70.9354Z" fill="#2859C5" stroke="#2859C5" stroke-width="0.75" stroke-miterlimit="10"/>
<path d="M38.2309 94.2937L40.6249 94.3126L40.5555 103.078L38.1616 103.059L38.2309 94.2937ZM39.95 97.7094L42.8119 97.732L42.7964 99.694L39.9345 99.6713L39.95 97.7094ZM28.1817 94.9162L30.5756 94.9352L30.5215 101.775L28.1276 101.756L28.1817 94.9162ZM28.1371 100.55L29.5231 100.561C30.6631 100.57 31.8454 100.531 33.0701 100.445C34.3068 100.359 35.5802 100.189 36.8903 99.9353L37.1449 101.881C35.7988 102.135 34.4834 102.31 33.1986 102.408C31.9259 102.494 30.6955 102.532 29.5076 102.523L28.1216 102.512L28.1371 100.55ZM29.6236 103.784L31.9995 103.803L31.9864 105.459L38.1782 105.508L38.1913 103.852L40.5493 103.87L40.4943 110.818L29.5686 110.732L29.6236 103.784ZM31.9718 107.313L31.9597 108.843L38.1515 108.892L38.1636 107.362L31.9718 107.313ZM46.0034 103.949L61.0869 104.069L61.072 105.959L45.9885 105.839L46.0034 103.949ZM52.2777 104.953L54.6716 104.972L54.623 111.11L52.2291 111.091L52.2777 104.953ZM47.7841 95.0173L50.16 95.0361L50.1451 96.926L57.0029 96.9803L57.0178 95.0903L59.3757 95.109L59.3175 102.471L47.7259 102.379L47.7841 95.0173ZM50.1303 98.798L50.1167 100.508L56.9745 100.562L56.9881 98.8522L50.1303 98.798ZM68.3388 102.164L70.7327 102.183L70.7139 104.559L68.32 104.54L68.3388 102.164ZM75.4548 94.6061L77.8487 94.6251L77.7589 105.983L75.365 105.964L75.4548 94.6061ZM76.9832 99.3704L79.9171 99.3936L79.9014 101.374L76.9675 101.35L76.9832 99.3704ZM64.622 105.537L64.3667 103.681C65.3627 103.689 66.4427 103.691 67.6067 103.688C68.7828 103.686 69.971 103.659 71.1715 103.609C72.372 103.546 73.5368 103.453 74.6658 103.33L74.8328 104.97C73.6673 105.164 72.4841 105.305 71.2834 105.391C70.0828 105.466 68.9124 105.511 67.7722 105.526C66.6441 105.529 65.5941 105.532 64.622 105.537ZM66.4501 106.541L77.7538 106.631L77.7169 111.293L75.323 111.274L75.3452 108.466L66.4355 108.395L66.4501 106.541ZM64.8436 95.7282L74.3113 95.8031L74.2976 97.5311L64.8299 97.4562L64.8436 95.7282ZM69.5607 97.8896C70.7966 97.8994 71.7788 98.1292 72.5073 98.5789C73.2479 99.0168 73.6151 99.6197 73.609 100.388C73.603 101.156 73.2262 101.759 72.4787 102.197C71.7432 102.635 70.7575 102.849 69.5215 102.839C68.2975 102.83 67.3153 102.6 66.5749 102.15C65.8464 101.7 65.4852 101.091 65.4913 100.324C65.4974 99.5555 65.8681 98.9584 66.6035 98.5322C67.351 98.0941 68.3367 97.8799 69.5607 97.8896ZM69.5484 99.4376C68.9844 99.4331 68.5458 99.5076 68.2326 99.6612C67.9194 99.8147 67.7616 100.041 67.7592 100.341C67.7568 100.641 67.911 100.877 68.2216 101.047C68.5324 101.206 68.9698 101.287 69.5338 101.292C70.0977 101.296 70.5363 101.221 70.8496 101.068C71.1749 100.902 71.3387 100.67 71.3411 100.37C71.3435 100.07 71.1833 99.8405 70.8605 99.682C70.5498 99.5235 70.1124 99.442 69.5484 99.4376ZM68.4002 94.4063L70.7941 94.4253L70.7772 96.5672L68.3832 96.5483L68.4002 94.4063ZM94.6428 94.7579L97.0367 94.7768L96.9421 106.746L94.5481 106.728L94.6428 94.7579ZM85.8168 109.143L97.3544 109.234L97.3392 111.16L85.8015 111.068L85.8168 109.143ZM85.8458 105.471L88.2397 105.49L88.2044 109.953L85.8105 109.935L85.8458 105.471ZM87.9566 95.7671C88.8086 95.7738 89.5751 95.9599 90.2563 96.3253C90.9374 96.6907 91.4735 97.1929 91.8644 97.832C92.2674 98.4712 92.4656 99.2048 92.459 100.033C92.4527 100.837 92.2429 101.561 91.8298 102.206C91.4288 102.839 90.8848 103.338 90.1979 103.705C89.5111 104.06 88.7417 104.234 87.8897 104.227C87.0377 104.22 86.2712 104.034 85.59 103.669C84.909 103.291 84.367 102.783 83.9641 102.144C83.5732 101.493 83.3809 100.765 83.3873 99.961C83.3939 99.1331 83.5976 98.4027 83.9987 97.7698C84.4117 97.1371 84.9616 96.6434 85.6484 96.2888C86.3352 95.9342 87.1046 95.7603 87.9566 95.7671ZM87.9404 97.819C87.5324 97.8158 87.1597 97.9028 86.8223 98.0802C86.485 98.2455 86.219 98.4894 86.0245 98.8119C85.83 99.1223 85.7309 99.5116 85.7272 99.9796C85.7237 100.424 85.8167 100.808 86.0061 101.134C86.1956 101.447 86.4577 101.695 86.7922 101.878C87.1269 102.049 87.4982 102.136 87.9062 102.139C88.3142 102.142 88.6869 102.061 89.0242 101.896C89.3616 101.718 89.6275 101.474 89.822 101.164C90.0165 100.842 90.1156 100.458 90.1191 100.014C90.1228 99.5463 90.0299 99.1556 89.8404 98.8421C89.6509 98.5165 89.3889 98.2685 89.0542 98.0978C88.7197 97.9152 88.3484 97.8222 87.9404 97.819Z" fill="black"/>
</svg>
