<svg width="none" height="none" viewBox="0 0 35 34" fill="none" xmlns="http://www.w3.org/2000/svg">
<path fill-rule="evenodd" clip-rule="evenodd" d="M5.52638 0C4.06069 0 2.65504 0.53732 1.61864 1.49376C0.582242 2.45019 0 3.7474 0 5.1V28.9C0 30.2526 0.582242 31.5498 1.61864 32.5062C2.65504 33.4627 4.06069 34 5.52638 34H16.5791C18.0448 34 19.4505 33.4627 20.4869 32.5062C21.5233 31.5498 22.1055 30.2526 22.1055 28.9V5.1C22.1055 3.7474 21.5233 2.45019 20.4869 1.49376C19.4505 0.53732 18.0448 0 16.5791 0H5.52638ZM24.4874 8.9981C24.8328 8.6794 25.3013 8.50036 25.7898 8.50036C26.2782 8.50036 26.7467 8.6794 27.0921 8.9981L34.4607 15.7981C34.806 16.1169 35 16.5492 35 17C35 17.4508 34.806 17.8831 34.4607 18.2019L27.0921 25.0019C26.7447 25.3116 26.2794 25.4829 25.7964 25.479C25.3134 25.4752 24.8514 25.2964 24.5098 24.9812C24.1683 24.666 23.9745 24.2396 23.9703 23.7939C23.9661 23.3481 24.1518 22.9187 24.4874 22.5981L28.7114 18.7H12.8949C12.4063 18.7 11.9378 18.5209 11.5923 18.2021C11.2468 17.8833 11.0528 17.4509 11.0528 17C11.0528 16.5491 11.2468 16.1167 11.5923 15.7979C11.9378 15.4791 12.4063 15.3 12.8949 15.3H28.7114L24.4874 11.4019C24.142 11.0831 23.948 10.6508 23.948 10.2C23.948 9.74922 24.142 9.3169 24.4874 8.9981Z" fill="none"/>
</svg>
