<svg width="none" height="none" viewBox="0 0 20 20" fill="none" xmlns="http://www.w3.org/2000/svg">
<path d="M5.50414 11.288C5.52214 11.303 8.38914 8.43903 8.38914 8.40703C8.38914 8.37503 3.34214 3.33303 2.08014 2.10003C1.61814 1.65003 1.21814 1.28003 1.19514 1.28003C1.11243 1.32502 1.03964 1.38625 0.98114 1.46003C0.641867 1.83567 0.385625 2.27865 0.22914 2.76003C0.17014 2.92903 0.12914 3.06803 0.12914 3.06803C0.124197 3.11794 0.115506 3.16742 0.10314 3.21603C-0.0217891 3.76931 -0.0333551 4.34216 0.0691395 4.90003C0.282139 5.91603 0.596139 6.36003 2.38214 8.16403C2.97214 8.76203 5.39914 11.185 5.50414 11.288ZM12.3991 9.65903C12.4751 9.68502 12.5437 9.72892 12.5991 9.78703C12.8032 9.97875 13.0436 10.1276 13.3062 10.2248C13.5688 10.322 13.8482 10.3655 14.1279 10.3529C14.4076 10.3402 14.6819 10.2715 14.9346 10.151C15.1873 10.0304 15.4133 9.86043 15.5991 9.65103C15.9901 9.31303 16.1881 9.12003 18.0991 7.21603L19.9991 5.32003L19.5221 4.83803C19.2621 4.57103 19.0421 4.35803 19.0361 4.36403C19.0301 4.37003 18.2781 5.11603 17.3661 6.02503L15.7071 7.68103L15.2331 7.21303C15.0683 7.0561 14.9096 6.89299 14.7571 6.72403C14.7571 6.71503 15.5001 5.95703 16.4121 5.04503L18.0651 3.38603L17.5991 2.90903C17.4426 2.74489 17.2805 2.58614 17.1131 2.43303C17.1041 2.43303 16.3491 3.17903 15.4371 4.08803L13.7731 5.74703L13.2881 5.26703L12.8021 4.78703L14.4601 3.12903C15.0188 2.57566 15.5718 2.01664 16.1191 1.45203C16.1191 1.44303 15.5441 0.852027 15.2541 0.573027L15.1541 0.478027L14.1891 1.46103C12.2281 3.46603 11.3571 4.37003 10.8631 4.92103C10.7681 5.02703 10.6791 5.12103 10.6701 5.12803C10.6067 5.19588 10.5457 5.26592 10.4871 5.33803C10.2982 5.58898 10.1778 5.88477 10.1379 6.19634C10.0979 6.50791 10.1397 6.82451 10.2591 7.11503C10.3662 7.37438 10.5003 7.62174 10.6591 7.85303C10.6711 7.86203 10.7331 7.92703 10.7991 7.99503L10.9171 8.11903L5.94814 13.092L0.97814 18.062L1.70114 18.791L2.42114 19.522L5.97514 15.968L9.52614 12.417L13.0571 15.947C14.2385 17.1324 15.4251 18.3124 16.6171 19.487C16.6321 19.493 18.0171 18.127 18.0381 18.071C18.0441 18.056 16.4571 16.451 14.5111 14.505L10.9741 10.966L11.5221 10.424C12.2631 9.68903 12.2991 9.65903 12.3991 9.65903Z" fill="#757D8A"/>
</svg>
