<svg xmlns="http://www.w3.org/2000/svg" viewBox="0 0 100 100" preserveAspectRatio="xMidYMid" width="200" height="200" style="shape-rendering: auto; display: block; background: rgba(255, 255, 255, 0);" xmlns:xlink="http://www.w3.org/1999/xlink"><g><g transform="rotate(0 50 50)">
  <rect fill="#ffc1a3" height="12" width="6" ry="4.8" rx="3" y="24" x="47">
    <animate repeatCount="indefinite" begin="-0.9782608695652173s" dur="1.0869565217391304s" keyTimes="0;1" values="1;0" attributeName="opacity"></animate>
  </rect>
</g><g transform="rotate(36 50 50)">
  <rect fill="#ffc1a3" height="12" width="6" ry="4.8" rx="3" y="24" x="47">
    <animate repeatCount="indefinite" begin="-0.8695652173913042s" dur="1.0869565217391304s" keyTimes="0;1" values="1;0" attributeName="opacity"></animate>
  </rect>
</g><g transform="rotate(72 50 50)">
  <rect fill="#ffc1a3" height="12" width="6" ry="4.8" rx="3" y="24" x="47">
    <animate repeatCount="indefinite" begin="-0.7608695652173912s" dur="1.0869565217391304s" keyTimes="0;1" values="1;0" attributeName="opacity"></animate>
  </rect>
</g><g transform="rotate(108 50 50)">
  <rect fill="#ffc1a3" height="12" width="6" ry="4.8" rx="3" y="24" x="47">
    <animate repeatCount="indefinite" begin="-0.6521739130434782s" dur="1.0869565217391304s" keyTimes="0;1" values="1;0" attributeName="opacity"></animate>
  </rect>
</g><g transform="rotate(144 50 50)">
  <rect fill="#ffc1a3" height="12" width="6" ry="4.8" rx="3" y="24" x="47">
    <animate repeatCount="indefinite" begin="-0.5434782608695652s" dur="1.0869565217391304s" keyTimes="0;1" values="1;0" attributeName="opacity"></animate>
  </rect>
</g><g transform="rotate(180 50 50)">
  <rect fill="#ffc1a3" height="12" width="6" ry="4.8" rx="3" y="24" x="47">
    <animate repeatCount="indefinite" begin="-0.4347826086956521s" dur="1.0869565217391304s" keyTimes="0;1" values="1;0" attributeName="opacity"></animate>
  </rect>
</g><g transform="rotate(216 50 50)">
  <rect fill="#ffc1a3" height="12" width="6" ry="4.8" rx="3" y="24" x="47">
    <animate repeatCount="indefinite" begin="-0.3260869565217391s" dur="1.0869565217391304s" keyTimes="0;1" values="1;0" attributeName="opacity"></animate>
  </rect>
</g><g transform="rotate(252 50 50)">
  <rect fill="#ffc1a3" height="12" width="6" ry="4.8" rx="3" y="24" x="47">
    <animate repeatCount="indefinite" begin="-0.21739130434782605s" dur="1.0869565217391304s" keyTimes="0;1" values="1;0" attributeName="opacity"></animate>
  </rect>
</g><g transform="rotate(288 50 50)">
  <rect fill="#ffc1a3" height="12" width="6" ry="4.8" rx="3" y="24" x="47">
    <animate repeatCount="indefinite" begin="-0.10869565217391303s" dur="1.0869565217391304s" keyTimes="0;1" values="1;0" attributeName="opacity"></animate>
  </rect>
</g><g transform="rotate(324 50 50)">
  <rect fill="#ffc1a3" height="12" width="6" ry="4.8" rx="3" y="24" x="47">
    <animate repeatCount="indefinite" begin="0s" dur="1.0869565217391304s" keyTimes="0;1" values="1;0" attributeName="opacity"></animate>
  </rect>
</g><g></g></g><!-- [ldio] generated by https://loading.io --></svg>