<svg width="none" height="none" viewBox="0 0 42 42" fill="none" xmlns="http://www.w3.org/2000/svg">
<path d="M19.951 3.09814H5.21134C4.09442 3.09814 3.02325 3.54184 2.23347 4.33162C1.44369 5.1214 1 6.19257 1 7.30949V36.7889C1 37.9058 1.44369 38.977 2.23347 39.7667C3.02325 40.5565 4.09442 41.0002 5.21134 41.0002H34.6907C35.8077 41.0002 36.8788 40.5565 37.6686 39.7667C38.4584 38.977 38.9021 37.9058 38.9021 36.7889V22.0492" stroke="#030712" stroke-width="2" stroke-linecap="round" stroke-linejoin="round"/>
<path d="M33.3747 2.3083C34.2124 1.47061 35.3486 1 36.5332 1C37.7179 1 38.854 1.47061 39.6917 2.3083C40.5294 3.14598 41 4.28213 41 5.4668C41 6.65147 40.5294 7.78762 39.6917 8.62531L19.9511 28.366L11.5284 30.4716L13.6341 22.049L33.3747 2.3083Z" stroke="#030712" stroke-width="2" stroke-linecap="round" stroke-linejoin="round"/>
</svg>
