<svg width="none" height="none" viewBox="0 0 40 35" fill="none" xmlns="http://www.w3.org/2000/svg">
<path d="M25.584 14.8203L18.248 10.2003C17.8173 9.92909 17.3289 9.78652 16.8319 9.78693C16.3349 9.78732 15.8467 9.93067 15.4164 10.2026C14.986 10.4745 14.6286 10.8654 14.38 11.3361C14.1314 11.8068 14.0004 12.3408 14 12.8844V22.12C13.994 23.2269 14.534 24.2506 15.412 24.7975C15.8425 25.0725 16.3319 25.2179 16.8305 25.2186C17.329 25.2194 17.8188 25.0756 18.25 24.8019L25.584 20.1819C26.0148 19.911 26.3727 19.5206 26.6216 19.0501C26.8705 18.5797 27.0015 18.0457 27.0015 17.5022C27.0015 16.9586 26.8705 16.4247 26.6216 15.9542C26.3727 15.4838 26.0148 15.0934 25.584 14.8225M24.584 18.2831L17.252 22.9053C17.1249 22.9868 16.9803 23.0298 16.833 23.0298C16.6857 23.0298 16.5411 22.9868 16.414 22.9053C16.2866 22.8264 16.1809 22.7115 16.108 22.5725C16.0352 22.4336 15.9979 22.2758 16 22.1156V12.8844C15.9986 12.725 16.0363 12.5681 16.1091 12.4299C16.1819 12.2918 16.2872 12.1776 16.414 12.0991C16.5399 12.0152 16.6846 11.9709 16.832 11.9709C16.9794 11.9709 17.1241 12.0152 17.25 12.0991L24.584 16.7213C24.7105 16.7994 24.8157 16.9129 24.8889 17.0501C24.9622 17.1873 25.0008 17.3433 25.0008 17.5022C25.0008 17.6611 24.9622 17.8171 24.8889 17.9543C24.8157 18.0915 24.7105 18.205 24.584 18.2831ZM34 0H6C4.40919 0.00173735 2.88399 0.693699 1.75911 1.92403C0.63424 3.15436 0.00158843 4.82255 0 6.5625V28.4375C0.00158843 30.1775 0.63424 31.8456 1.75911 33.076C2.88399 34.3063 4.40919 34.9983 6 35H34C35.5908 34.9983 37.116 34.3063 38.2409 33.076C39.3658 31.8456 39.9984 30.1775 40 28.4375V6.5625C39.9984 4.82255 39.3658 3.15436 38.2409 1.92403C37.116 0.693699 35.5908 0.00173735 34 0ZM38 28.4375C37.9984 29.5973 37.5765 30.7091 36.8267 31.5292C36.0769 32.3493 35.0604 32.8108 34 32.8125H6C4.93962 32.8108 3.92313 32.3493 3.17333 31.5292C2.42352 30.7091 2.00159 29.5973 2 28.4375V6.5625C2.00159 5.40271 2.42352 4.29092 3.17333 3.47082C3.92313 2.65073 4.93962 2.18924 6 2.1875H34C35.0604 2.18924 36.0769 2.65073 36.8267 3.47082C37.5765 4.29092 37.9984 5.40271 38 6.5625V28.4375Z" fill="none"/>
</svg>
